<svg width="135" height="123" viewBox="0 0 135 123" fill="none" xmlns="http://www.w3.org/2000/svg">
<path d="M135 56.4466C133.958 52.5231 131.857 47.3522 128.311 47.3522L106.162 47.9669H87.9775L96.3294 38.4567C111.169 26.2525 112.01 22.9438 112.01 22.745V19.4363C112.01 17.9899 112.01 14.4823 104.48 13.6506C103.018 13.6506 97.17 15.5129 81.9101 32.2552L81.0695 33.0869H77.524L76.6834 30.8088C76.263 26.4695 75.8427 24.4084 75.6417 23.3597H75.0203L74.8193 21.0816C72.9369 7.43099 69.3915 0 64.7861 0C57.8963 0 56.215 3.3087 55.5936 6.40043H55.7946L60.1807 31.0077V36.5944L55.9957 33.0869C38.031 18.4057 31.7443 16.1276 29.4599 16.1276H27.5775C25.2748 16.1276 22.3507 16.9593 20.2674 23.7756V24.6072C20.2674 27.699 24.0321 31.6405 30.7209 35.365L39.9134 42.1812V45.6888L37.83 46.7194C3.76472 51.8904 0 58.2908 0 60.9847V63.4617C0 65.7398 0.840658 68.8315 7.73047 70.4949C22.1497 65.7398 34.4856 63.4617 45.9808 63.4617H56.8363L53.9123 67.6021C49.7272 73.6047 41.7957 81.4516 29.8802 91.3776L29.2588 91.7935C17.7636 97.3803 17.1423 100.056 17.1423 100.472V102.334C17.1423 103.98 17.5626 105.643 21.5284 106.258H22.369C27.1754 106.258 37.4096 102.117 59.139 82.2833L63.3241 78.5587L63.5251 84.1455C64.1465 99.6584 64.9871 103.582 65.4075 104.612L65.6085 105.643C65.6085 117.214 67.9112 123 72.7176 123H76.062C77.323 123 80.8684 123 83.1711 114.52L82.5498 110.181L81.9284 86.8214L86.3145 90.7448C95.507 98.8086 103.457 102.949 110.127 102.949H112.01C117.236 102.334 117.858 100.056 117.858 97.778C117.858 94.6682 116.597 91.7754 113.892 88.4667L87.1369 66.1376H113.252C134.982 66.1376 134.982 58.6885 134.982 56.4285L135 56.4466Z" fill="#F7A022"/>
</svg>
