<svg width="38" height="35" viewBox="0 0 38 35" fill="none" xmlns="http://www.w3.org/2000/svg">
<path d="M37.7583 16.2184C37.467 15.12 36.8792 13.6723 35.8875 13.6723L29.6925 13.8444H24.6066L26.9425 11.1818C31.093 7.76499 31.3281 6.83865 31.3281 6.78297V5.85663C31.3281 5.45168 31.3281 4.46966 29.2222 4.23681C28.8133 4.23681 27.1776 4.7582 22.9096 9.44556L22.6744 9.67841H21.6828L21.4477 9.0406C21.3301 7.82574 21.2126 7.24868 21.1563 6.95508H20.9825L20.9263 6.31727C20.3998 2.4955 19.4082 0.415039 18.1201 0.415039C16.1931 0.415039 15.7228 1.34138 15.5491 2.20697H15.6053L16.832 9.09629V10.6604L15.6615 9.67841C10.6369 5.5681 8.8786 4.9303 8.23967 4.9303H7.71319C7.06914 4.9303 6.25131 5.16315 5.66861 7.07151V7.30435C5.66861 8.16995 6.72157 9.27346 8.59236 10.3162L11.1634 12.2246V13.2066L10.5807 13.4951C1.05296 14.9428 0 16.7348 0 17.489V18.1825C0 18.8203 0.235125 19.6859 2.16214 20.1516C6.19509 18.8203 9.64532 18.1825 12.8604 18.1825H15.8966L15.0788 19.3417C13.9083 21.0222 11.6899 23.2191 8.35723 25.9981L8.18344 26.1146C4.96833 27.6787 4.79454 28.4279 4.79454 28.5443V29.0657C4.79454 29.5263 4.91211 29.992 6.0213 30.1641H6.25642C7.60073 30.1641 10.4632 29.0049 16.5407 23.452L17.7112 22.4092L17.7674 23.9734C17.9412 28.3165 18.1763 29.4149 18.2939 29.7035L18.3501 29.992C18.3501 33.2317 18.9942 34.8515 20.3385 34.8515H21.2739C21.6266 34.8515 22.6182 34.8515 23.2622 32.4774L23.0885 31.2626L22.9147 24.7225L24.1414 25.821C26.7125 28.0786 28.936 29.2378 30.8016 29.2378H31.3281C32.79 29.0657 32.9638 28.4279 32.9638 27.7901C32.9638 26.9194 32.6111 26.1095 31.8546 25.1832L24.3714 18.9316H31.6757C37.7532 18.9316 37.7532 16.8461 37.7532 16.2134L37.7583 16.2184Z" fill="#EDEFFE"/>
</svg>
