<svg width="27" height="38" viewBox="0 0 27 38" fill="none" xmlns="http://www.w3.org/2000/svg">
<path d="M15.9894 0.800592C5.52014 -0.701587 2.56802 2.47222 1.22885 5.38498C-1.61017 11.3433 1.0622 13.9126 3.28819 15.2865C6.90691 17.5169 9.75189 18.3321 11.6981 17.6452L16.8762 15.8453L15.5371 20.0908C14.1979 24.2905 11.9719 28.1925 8.79364 31.9662C5.84153 35.2225 6.2284 36.2942 6.2284 36.2942C6.78787 36.8529 7.6747 37.4941 10.2935 37.4071C10.853 37.4071 13.692 36.9353 19.5427 30.1618C23.7209 25.2751 26.2266 19.0603 26.9527 11.7738C27.4527 5.472 24.0006 2.0005 15.9775 0.800592H15.9894Z" fill="#EDEFFE"/>
</svg>
