<svg width="29" height="51" viewBox="0 0 29 51" fill="none" xmlns="http://www.w3.org/2000/svg">
<path d="M17.1738 0.531438C5.92903 -1.53913 2.75824 2.83557 1.31988 6.85046C-1.72945 15.0633 1.14088 18.6047 3.53176 20.4986C7.41853 23.5728 10.4743 24.6965 12.5647 23.7496L18.1263 21.2687L16.688 27.1206C15.2496 32.9094 12.8587 38.2878 9.44502 43.4895C6.27423 47.9778 6.68976 49.455 6.68976 49.455C7.29068 50.2252 8.24319 51.1089 11.056 50.989C11.6569 50.989 14.7062 50.3388 20.9903 41.0023C25.478 34.2666 28.1693 25.7002 28.9492 15.6567C29.4862 6.97041 25.7784 2.18537 17.161 0.531438H17.1738Z" fill="#7E71FE"/>
</svg>
