<svg width="483" height="523" viewBox="0 0 483 523" fill="none" xmlns="http://www.w3.org/2000/svg">
<g opacity="0.99">
<path d="M328.796 1.30566C328.363 1.30566 327.42 1.73833 326.269 2.60366C324.677 5.27692 319.4 16.6344 303.415 54.5236C294.089 72.2398 289.029 85.2584 288.303 93.3554L288.233 94.2208C288.233 95.0861 288.38 98.3388 289.678 98.4856L291.339 98.6324C291.339 98.6324 292.931 98.4856 297.342 92.776C302.472 85.2584 314.479 56.911 333.06 8.75371L333.207 6.72945C333.354 5.06832 333.06 2.75046 328.796 1.30566Z" fill="#EDEFFE"/>
<path d="M239.002 19.7481C238.639 18.3729 237.92 16.5649 236.692 16.5649L229.027 16.7813H222.738L225.628 13.459C230.758 9.19416 231.052 8.03523 231.052 7.9657V6.80677C231.052 6.29684 231.052 5.06838 228.448 4.78251C227.946 4.78251 225.914 5.43151 220.637 11.288L220.351 11.5738H219.122L218.836 10.778C218.69 9.25597 218.551 8.53743 218.473 8.1743H218.257L218.187 7.37851C217.538 2.60372 216.31 0 214.718 0C212.331 0 211.752 1.15893 211.535 2.24059H211.605L213.127 10.8476V12.8023L211.682 11.5738C205.462 6.43591 203.291 5.64784 202.496 5.64784H201.847C201.051 5.64784 200.039 5.93371 199.312 8.3211V8.60697C199.312 9.68864 200.618 11.0639 202.928 12.3696L206.111 14.757V15.9855L205.385 16.3486C193.603 18.1565 192.297 20.3971 192.297 21.3397V22.2051C192.297 23.0008 192.583 24.0825 194.97 24.662C199.961 23.0009 204.226 22.2051 208.205 22.2051H211.968L210.956 23.6499C209.511 25.7436 206.76 28.4942 202.642 31.9632L202.426 32.11C198.447 34.0647 198.231 34.9996 198.231 35.1464V35.7954C198.231 36.3749 198.377 36.9543 199.753 37.1707H200.039C201.7 37.1707 205.246 35.7259 212.764 28.78L214.208 27.482L214.278 29.4368C214.494 34.8605 214.788 36.2358 214.927 36.5989L214.997 36.9621C214.997 41.0106 215.792 43.0348 217.453 43.0348H218.612C219.045 43.0348 220.274 43.0348 221.069 40.068L220.853 38.5459L220.637 30.3716L222.159 31.7469C225.342 34.5669 228.092 36.0117 230.403 36.0117H231.052C232.859 35.7954 233.076 34.9996 233.076 34.2038C233.076 33.1221 232.643 32.11 231.701 30.9511L222.445 23.1399H231.484C239.002 23.1399 239.002 20.5362 239.002 19.7404V19.7481Z" fill="#09CA5F"/>
<path d="M245.677 62.1958C232.087 59.6617 228.255 65.0159 226.516 69.9298C222.831 79.9815 226.3 84.3159 229.19 86.6338C233.887 90.3964 237.58 91.7717 240.107 90.6127L246.828 87.5764L245.09 94.7385C243.352 101.823 240.462 108.406 236.336 114.773C232.504 120.266 233.006 122.074 233.006 122.074C233.733 123.016 234.884 124.098 238.283 123.951C239.01 123.951 242.695 123.155 250.29 111.728C255.714 103.485 258.966 93.0001 259.909 80.7078C260.558 70.0765 256.077 64.2201 245.662 62.1958H245.677Z" fill="#EDEFFE"/>
<path d="M200.015 54.4695C199.583 54.4695 198.64 54.9021 197.481 55.7675C195.89 58.3712 190.613 69.721 174.635 107.687C165.309 125.404 160.249 138.422 159.523 146.45L159.453 147.392C159.453 148.188 159.6 151.51 160.898 151.588L162.559 151.734C162.628 151.734 164.151 151.588 168.562 145.878C173.7 138.36 185.699 110.013 204.288 61.8557L204.435 59.8315C204.582 58.1703 204.365 55.8525 200.023 54.4772L200.015 54.4695Z" fill="#EDEFFE"/>
<path d="M266.515 15.2051C254.153 16.9435 252.484 22.6531 252.484 27.4279C255.451 48.3272 264.05 50.7842 270.27 50.7842H274.535C291.748 46.8824 291.748 40.6629 291.748 38.5613V34.7987C284.586 21.641 276.273 15.2051 266.515 15.2051Z" fill="#EDEFFE"/>
<path d="M477.796 48.3057C477.363 48.3057 476.42 48.7383 475.269 49.6037C473.677 52.2769 468.4 63.6344 452.415 101.524C443.089 119.24 438.029 132.258 437.303 140.355L437.233 141.221C437.233 142.086 437.38 145.339 438.678 145.486L440.339 145.632C440.339 145.632 441.931 145.486 446.342 139.776C451.472 132.258 463.479 103.911 482.06 55.7537L482.207 53.7294C482.354 52.0683 482.06 49.7505 477.796 48.3057Z" fill="#EDEFFE"/>
<path d="M388.002 66.7481C387.639 65.3729 386.92 63.5649 385.692 63.5649L378.027 63.7813H371.738L374.628 60.459C379.758 56.1942 380.052 55.0352 380.052 54.9657V53.8068C380.052 53.2968 380.052 52.0684 377.448 51.7825C376.946 51.7825 374.914 52.4315 369.637 58.288L369.351 58.5738H368.122L367.836 57.778C367.69 56.256 367.551 55.5374 367.473 55.1743H367.257L367.187 54.3785C366.538 49.6037 365.31 47 363.718 47C361.331 47 360.752 48.1589 360.535 49.2406H360.605L362.127 57.8476V59.8023L360.682 58.5738C354.462 53.4359 352.291 52.6478 351.496 52.6478H350.847C350.051 52.6478 349.039 52.9337 348.312 55.3211V55.607C348.312 56.6886 349.618 58.0639 351.928 59.3696L355.111 61.757V62.9855L354.385 63.3486C342.603 65.1565 341.297 67.3971 341.297 68.3397V69.2051C341.297 70.0008 341.583 71.0825 343.97 71.662C348.961 70.0009 353.226 69.2051 357.205 69.2051H360.968L359.956 70.6499C358.511 72.7436 355.76 75.4942 351.642 78.9632L351.426 79.11C347.447 81.0647 347.231 81.9996 347.231 82.1464V82.7954C347.231 83.3749 347.377 83.9543 348.753 84.1707H349.039C350.7 84.1707 354.246 82.7259 361.764 75.78L363.208 74.482L363.278 76.4368C363.494 81.8605 363.788 83.2358 363.927 83.5989L363.997 83.9621C363.997 88.0106 364.792 90.0348 366.453 90.0348H367.612C368.045 90.0348 369.274 90.0348 370.069 87.068L369.853 85.5459L369.637 77.3716L371.159 78.7469C374.342 81.5669 377.092 83.0117 379.403 83.0117H380.052C381.859 82.7954 382.076 81.9996 382.076 81.2038C382.076 80.1221 381.643 79.11 380.701 77.9511L371.445 70.1399H380.484C388.002 70.1399 388.002 67.5362 388.002 66.7404V66.7481Z" fill="#09CA5F"/>
<path d="M394.677 109.196C381.087 106.662 377.255 112.016 375.516 116.93C371.831 126.982 375.3 131.316 378.19 133.634C382.887 137.396 386.58 138.772 389.107 137.613L395.828 134.576L394.09 141.739C392.352 148.823 389.462 155.406 385.336 161.773C381.504 167.266 382.006 169.074 382.006 169.074C382.733 170.016 383.884 171.098 387.283 170.951C388.01 170.951 391.695 170.155 399.29 158.728C404.714 150.485 407.966 140 408.909 127.708C409.558 117.077 405.077 111.22 394.662 109.196H394.677Z" fill="#EDEFFE"/>
<path d="M349.015 101.469C348.583 101.469 347.64 101.902 346.481 102.767C344.89 105.371 339.613 116.721 323.635 154.687C314.309 172.404 309.249 185.422 308.523 193.45L308.453 194.392C308.453 195.188 308.6 198.51 309.898 198.588L311.559 198.734C311.628 198.734 313.151 198.588 317.562 192.878C322.7 185.36 334.699 157.013 353.288 108.856L353.435 106.831C353.582 105.17 353.365 102.852 349.023 101.477L349.015 101.469Z" fill="#EDEFFE"/>
<path d="M415.515 62.2051C403.153 63.9435 401.484 69.6531 401.484 74.4279C404.451 95.3272 413.05 97.7842 419.27 97.7842H423.534C440.748 93.8824 440.748 87.6629 440.748 85.5613V81.7987C433.586 68.641 425.273 62.2051 415.515 62.2051Z" fill="#EDEFFE"/>
<path d="M169.342 324.67C168.91 324.67 167.967 325.102 166.816 325.968C165.224 328.641 159.947 339.998 143.962 377.888C134.636 395.604 129.576 408.622 128.85 416.719L128.78 417.585C128.78 418.45 128.927 421.703 130.225 421.85L131.886 421.996C131.886 421.996 133.478 421.85 137.889 416.14C143.019 408.622 155.026 380.275 173.607 332.118L173.754 330.093C173.901 328.432 173.607 326.114 169.342 324.67Z" fill="#EDEFFE"/>
<path d="M79.5411 343.104C79.178 341.729 78.4594 339.921 77.231 339.921L69.5666 340.137H63.2775L66.1671 336.815C71.2973 332.55 71.5908 331.391 71.5908 331.322V330.163C71.5908 329.653 71.5908 328.424 68.9871 328.138C68.4849 328.138 66.4529 328.787 61.176 334.644L60.8901 334.93H59.6616L59.3757 334.134C59.229 332.612 59.0899 331.893 59.0126 331.53H58.7963L58.7267 330.734C58.0777 325.96 56.8493 323.356 55.2577 323.356C52.8703 323.356 52.2908 324.515 52.0745 325.597H52.144L53.6661 334.204V336.158L52.2213 334.93C46.0017 329.792 43.8307 329.004 43.0349 329.004H42.3859C41.5901 329.004 40.5779 329.29 39.8517 331.677V331.963C39.8517 333.045 41.1574 334.42 43.4675 335.726L46.6507 338.113V339.341L45.9245 339.705C34.142 341.512 32.8363 343.753 32.8363 344.696V345.561C32.8363 346.357 33.1222 347.438 35.5096 348.018C40.5007 346.357 44.7655 345.561 48.7445 345.561H52.5072L51.495 347.006C50.0502 349.1 47.2997 351.85 43.1817 355.319L42.9653 355.466C38.9863 357.421 38.77 358.356 38.77 358.502V359.151C38.77 359.731 38.9168 360.31 40.2921 360.527H40.5779C42.2391 360.527 45.7854 359.082 53.303 352.136L54.7478 350.838L54.8173 352.793C55.0336 358.216 55.3272 359.592 55.4663 359.955L55.5358 360.318C55.5358 364.367 56.3316 366.391 57.9928 366.391H59.1517C59.5844 366.391 60.8128 366.391 61.6086 363.424L61.3923 361.902L61.176 353.728L62.698 355.103C65.8812 357.923 68.6317 359.368 70.9418 359.368H71.5908C73.3988 359.151 73.6151 358.356 73.6151 357.56C73.6151 356.478 73.1824 355.466 72.2398 354.307L62.9839 346.496H72.0235C79.5411 346.496 79.5411 343.892 79.5411 343.096V343.104Z" fill="#F7A022"/>
<path d="M86.2165 385.552C72.6261 383.018 68.7939 388.372 67.0555 393.286C63.3701 403.337 66.8392 407.672 69.7288 409.99C74.4263 413.752 78.1194 415.128 80.6459 413.969L87.3677 410.932L85.6293 418.094C83.8909 425.179 81.0013 431.762 76.8755 438.128C73.0433 443.622 73.5455 445.43 73.5455 445.43C74.2718 446.372 75.423 447.454 78.8225 447.307C79.5488 447.307 83.2341 446.511 90.829 435.084C96.2528 426.841 99.5055 416.356 100.448 404.064C101.097 393.432 96.6159 387.576 86.201 385.552H86.2165Z" fill="#EDEFFE"/>
<path d="M40.5625 377.825C40.1298 377.825 39.1872 378.258 38.0283 379.123C36.4367 381.727 31.1597 393.077 15.182 431.043C5.85645 448.76 0.795797 461.778 0.0695357 469.806L0 470.748C0 471.544 0.146798 474.866 1.4448 474.944L3.10593 475.09C3.17546 475.09 4.69752 474.944 9.10917 469.234C14.2471 461.716 26.2459 433.369 44.8351 385.212L44.9818 383.187C45.1286 381.526 44.9123 379.208 40.5702 377.833L40.5625 377.825Z" fill="#EDEFFE"/>
<path d="M107.062 338.569C94.6999 340.307 93.031 346.017 93.031 350.792C95.9979 371.691 104.597 374.148 110.817 374.148H115.082C132.295 370.246 132.295 364.027 132.295 361.925V358.162C125.133 345.005 116.82 338.569 107.062 338.569Z" fill="#EDEFFE"/>
<path d="M318.342 371.67C317.91 371.67 316.967 372.102 315.816 372.968C314.224 375.641 308.947 386.998 292.962 424.888C283.636 442.604 278.576 455.622 277.85 463.719L277.78 464.585C277.78 465.45 277.927 468.703 279.225 468.85L280.886 468.996C280.886 468.996 282.478 468.85 286.889 463.14C292.019 455.622 304.026 427.275 322.607 379.118L322.754 377.093C322.901 375.432 322.607 373.114 318.342 371.67Z" fill="#EDEFFE"/>
<path d="M228.541 390.104C228.178 388.729 227.459 386.921 226.231 386.921L218.567 387.137H212.277L215.167 383.815C220.297 379.55 220.591 378.391 220.591 378.322V377.163C220.591 376.653 220.591 375.424 217.987 375.138C217.485 375.138 215.453 375.787 210.176 381.644L209.89 381.93H208.662L208.376 381.134C208.229 379.612 208.09 378.893 208.013 378.53H207.796L207.727 377.734C207.078 372.96 205.849 370.356 204.258 370.356C201.87 370.356 201.291 371.515 201.075 372.597H201.144L202.666 381.204V383.158L201.221 381.93C195.002 376.792 192.831 376.004 192.035 376.004H191.386C190.59 376.004 189.578 376.29 188.852 378.677V378.963C188.852 380.045 190.157 381.42 192.468 382.726L195.651 385.113V386.341L194.924 386.705C183.142 388.512 181.836 390.753 181.836 391.696V392.561C181.836 393.357 182.122 394.438 184.51 395.018C189.501 393.357 193.766 392.561 197.745 392.561H201.507L200.495 394.006C199.05 396.1 196.3 398.85 192.182 402.319L191.965 402.466C187.986 404.421 187.77 405.356 187.77 405.502V406.151C187.77 406.731 187.917 407.31 189.292 407.527H189.578C191.239 407.527 194.785 406.082 202.303 399.136L203.748 397.838L203.817 399.793C204.034 405.216 204.327 406.592 204.466 406.955L204.536 407.318C204.536 411.367 205.332 413.391 206.993 413.391H208.152C208.584 413.391 209.813 413.391 210.609 410.424L210.392 408.902L210.176 400.728L211.698 402.103C214.881 404.923 217.632 406.368 219.942 406.368H220.591C222.399 406.151 222.615 405.356 222.615 404.56C222.615 403.478 222.182 402.466 221.24 401.307L211.984 393.496H221.024C228.541 393.496 228.541 390.892 228.541 390.096V390.104Z" fill="#F7A022"/>
<path d="M235.216 432.552C221.626 430.018 217.794 435.372 216.056 440.286C212.37 450.337 215.839 454.672 218.729 456.99C223.426 460.752 227.119 462.128 229.646 460.969L236.368 457.932L234.629 465.094C232.891 472.179 230.001 478.762 225.876 485.128C222.043 490.622 222.546 492.43 222.546 492.43C223.272 493.372 224.423 494.454 227.822 494.307C228.549 494.307 232.234 493.511 239.829 482.084C245.253 473.841 248.505 463.356 249.448 451.064C250.097 440.432 245.616 434.576 235.201 432.552H235.216Z" fill="#EDEFFE"/>
<path d="M189.562 424.825C189.13 424.825 188.187 425.258 187.028 426.123C185.437 428.727 180.16 440.077 164.182 478.043C154.856 495.76 149.796 508.778 149.07 516.806L149 517.748C149 518.544 149.147 521.866 150.445 521.944L152.106 522.09C152.175 522.09 153.698 521.944 158.109 516.234C163.247 508.716 175.246 480.369 193.835 432.212L193.982 430.187C194.129 428.526 193.912 426.208 189.57 424.833L189.562 424.825Z" fill="#EDEFFE"/>
<path d="M256.062 385.569C243.7 387.307 242.031 393.017 242.031 397.792C244.998 418.691 253.597 421.148 259.817 421.148H264.082C281.295 417.246 281.295 411.027 281.295 408.925V405.162C274.133 392.005 265.82 385.569 256.062 385.569Z" fill="#EDEFFE"/>
<path d="M227.343 158.765C226.91 158.765 225.968 159.198 224.817 160.063C223.225 162.737 217.948 174.094 201.962 211.983C192.637 229.699 187.576 242.718 186.85 250.815L186.781 251.68C186.781 252.546 186.927 255.799 188.225 255.945L189.886 256.092C189.886 256.092 191.478 255.945 195.89 250.236C201.02 242.718 213.026 214.371 231.608 166.213L231.755 164.189C231.901 162.528 231.608 160.21 227.343 158.765Z" fill="#EDEFFE"/>
<path d="M137.542 177.2C137.178 175.825 136.46 174.017 135.231 174.017L127.567 174.233H121.278L124.168 170.911C129.298 166.646 129.591 165.487 129.591 165.418V164.259C129.591 163.749 129.591 162.52 126.988 162.234C126.485 162.234 124.453 162.883 119.176 168.74L118.891 169.026H117.662L117.376 168.23C117.229 166.708 117.09 165.989 117.013 165.626H116.797L116.727 164.83C116.078 160.056 114.85 157.452 113.258 157.452C110.871 157.452 110.291 158.611 110.075 159.692H110.145L111.667 168.299V170.254L110.222 169.026C104.002 163.888 101.831 163.1 101.035 163.1H100.386C99.5906 163.1 98.5784 163.386 97.8522 165.773V166.059C97.8522 167.141 99.1579 168.516 101.468 169.822L104.651 172.209V173.437L103.925 173.801C92.1425 175.608 90.8368 177.849 90.8368 178.792V179.657C90.8368 180.453 91.1227 181.534 93.5101 182.114C98.5012 180.453 102.766 179.657 106.745 179.657H110.508L109.496 181.102C108.051 183.196 105.3 185.946 101.182 189.415L100.966 189.562C96.9868 191.517 96.7705 192.452 96.7705 192.598V193.247C96.7705 193.827 96.9173 194.406 98.2926 194.623H98.5784C100.24 194.623 103.786 193.178 111.303 186.232L112.748 184.934L112.818 186.889C113.034 192.312 113.328 193.688 113.467 194.051L113.536 194.414C113.536 198.462 114.332 200.487 115.993 200.487H117.152C117.585 200.487 118.813 200.487 119.609 197.52L119.393 195.998L119.176 187.824L120.698 189.199C123.882 192.019 126.632 193.464 128.942 193.464H129.591C131.399 193.247 131.616 192.452 131.616 191.656C131.616 190.574 131.183 189.562 130.24 188.403L120.984 180.592H130.024C137.542 180.592 137.542 177.988 137.542 177.192V177.2Z" fill="#09CA5F"/>
<path d="M144.217 219.648C130.627 217.114 126.794 222.468 125.056 227.382C121.371 237.433 124.84 241.768 127.729 244.086C132.427 247.848 136.12 249.224 138.646 248.065L145.368 245.028L143.63 252.19C141.891 259.275 139.002 265.858 134.876 272.224C131.044 277.718 131.546 279.526 131.546 279.526C132.272 280.468 133.423 281.55 136.823 281.403C137.549 281.403 141.235 280.607 148.829 269.18C154.253 260.936 157.506 250.452 158.449 238.16C159.098 227.528 154.616 221.672 144.201 219.648H144.217Z" fill="#EDEFFE"/>
<path d="M98.563 211.921C98.1303 211.921 97.1877 212.354 96.0288 213.219C94.4372 215.823 89.1602 227.173 73.1824 265.139C63.8569 282.855 58.7963 295.874 58.07 303.902L58.0005 304.844C58.0005 305.64 58.1473 308.962 59.4453 309.04L61.1064 309.186C61.1759 309.186 62.698 309.04 67.1097 303.33C72.2476 295.812 84.2463 267.465 102.836 219.308L102.982 217.283C103.129 215.622 102.913 213.304 98.5707 211.929L98.563 211.921Z" fill="#EDEFFE"/>
<path d="M165.055 172.657C152.693 174.395 151.024 180.105 151.024 184.88C153.991 205.779 162.59 208.236 168.809 208.236H173.074C190.288 204.334 190.288 198.115 190.288 196.013V192.251C183.126 179.093 174.813 172.657 165.055 172.657Z" fill="#EDEFFE"/>
<path d="M376.343 205.765C375.91 205.765 374.968 206.198 373.817 207.063C372.225 209.737 366.948 221.094 350.962 258.983C341.637 276.699 336.576 289.718 335.85 297.815L335.781 298.68C335.781 299.546 335.927 302.799 337.225 302.945L338.886 303.092C338.886 303.092 340.478 302.945 344.89 297.236C350.02 289.718 362.026 261.371 380.608 213.213L380.755 211.189C380.901 209.528 380.608 207.21 376.343 205.765Z" fill="#EDEFFE"/>
<path d="M286.542 224.2C286.178 222.825 285.46 221.017 284.231 221.017L276.567 221.233H270.278L273.168 217.911C278.298 213.646 278.591 212.487 278.591 212.418V211.259C278.591 210.749 278.591 209.52 275.988 209.234C275.485 209.234 273.453 209.883 268.176 215.74L267.891 216.026H266.662L266.376 215.23C266.229 213.708 266.09 212.989 266.013 212.626H265.797L265.727 211.83C265.078 207.056 263.85 204.452 262.258 204.452C259.871 204.452 259.291 205.611 259.075 206.692H259.145L260.667 215.299V217.254L259.222 216.026C253.002 210.888 250.831 210.1 250.035 210.1H249.386C248.591 210.1 247.578 210.386 246.852 212.773V213.059C246.852 214.141 248.158 215.516 250.468 216.822L253.651 219.209V220.437L252.925 220.801C241.143 222.608 239.837 224.849 239.837 225.792V226.657C239.837 227.453 240.123 228.534 242.51 229.114C247.501 227.453 251.766 226.657 255.745 226.657H259.508L258.496 228.102C257.051 230.196 254.3 232.946 250.182 236.415L249.966 236.562C245.987 238.517 245.771 239.452 245.771 239.598V240.247C245.771 240.827 245.917 241.406 247.293 241.623H247.578C249.24 241.623 252.786 240.178 260.303 233.232L261.748 231.934L261.818 233.889C262.034 239.312 262.328 240.688 262.467 241.051L262.536 241.414C262.536 245.462 263.332 247.487 264.993 247.487H266.152C266.585 247.487 267.813 247.487 268.609 244.52L268.393 242.998L268.176 234.824L269.698 236.199C272.882 239.019 275.632 240.464 277.942 240.464H278.591C280.399 240.247 280.616 239.452 280.616 238.656C280.616 237.574 280.183 236.562 279.24 235.403L269.984 227.592H279.024C286.542 227.592 286.542 224.988 286.542 224.192V224.2Z" fill="#09CA5F"/>
<path d="M293.217 266.648C279.627 264.114 275.794 269.468 274.056 274.382C270.371 284.433 273.84 288.768 276.729 291.086C281.427 294.848 285.12 296.224 287.646 295.065L294.368 292.028L292.63 299.19C290.891 306.275 288.002 312.858 283.876 319.224C280.044 324.718 280.546 326.526 280.546 326.526C281.272 327.468 282.423 328.55 285.823 328.403C286.549 328.403 290.235 327.607 297.829 316.18C303.253 307.936 306.506 297.452 307.449 285.16C308.098 274.528 303.616 268.672 293.201 266.648H293.217Z" fill="#EDEFFE"/>
<path d="M247.563 258.921C247.13 258.921 246.188 259.354 245.029 260.219C243.437 262.823 238.16 274.173 222.182 312.139C212.857 329.855 207.796 342.874 207.07 350.902L207 351.844C207 352.64 207.147 355.962 208.445 356.04L210.106 356.186C210.176 356.186 211.698 356.04 216.11 350.33C221.248 342.812 233.246 314.465 251.836 266.308L251.982 264.283C252.129 262.622 251.913 260.304 247.571 258.929L247.563 258.921Z" fill="#EDEFFE"/>
<path d="M314.055 219.657C301.693 221.395 300.024 227.105 300.024 231.88C302.991 252.779 311.59 255.236 317.809 255.236H322.074C339.288 251.334 339.288 245.115 339.288 243.013V239.251C332.126 226.093 323.813 219.657 314.055 219.657Z" fill="#EDEFFE"/>
</g>
</svg>
