<svg width="837" height="752" viewBox="0 0 837 752" fill="none" xmlns="http://www.w3.org/2000/svg">
<g opacity="0.16">
<mask id="mask0_14_380" style="mask-type:luminance" maskUnits="userSpaceOnUse" x="0" y="0" width="837" height="752">
<path d="M836.622 0H0V752H836.622V0Z" fill="white"/>
</mask>
<g mask="url(#mask0_14_380)">
<path d="M214.629 -13.075C214.072 -13.075 212.86 -12.3675 211.379 -10.9527C209.332 -6.58174 202.545 11.9883 181.984 73.9392C169.99 102.906 163.481 124.192 162.547 137.431L162.457 138.846C162.457 140.261 162.646 145.579 164.316 145.819L166.452 146.059C166.452 146.059 168.499 145.819 174.174 136.484C180.772 124.192 196.215 77.8427 220.114 -0.897017L220.303 -4.20679C220.492 -6.92282 220.114 -10.7126 214.629 -13.075Z" fill="#EDEFFE"/>
<path d="M99.136 17.0794C98.6689 14.8307 97.7447 11.8747 96.1647 11.8747L86.3067 12.2284H78.2177L81.9343 6.79634C88.5327 -0.176912 88.9104 -2.07182 88.9104 -2.18551V-4.08042C88.9104 -4.91418 88.9104 -6.92278 85.5614 -7.39019C84.9155 -7.39019 82.302 -6.32904 75.5147 3.24655L75.147 3.71396H73.567L73.1993 2.41279C73.0105 -0.0758514 72.8316 -1.25069 72.7322 -1.84443H72.454L72.3645 -3.1456C71.5298 -10.9526 69.9497 -15.2098 67.9026 -15.2098C64.832 -15.2098 64.0867 -13.3149 63.8084 -11.5464H63.8979L65.8555 2.52649V5.72256L63.9972 3.71396C55.9976 -4.68679 53.2052 -5.97533 52.1816 -5.97533H51.3469C50.3233 -5.97533 49.0215 -5.50792 48.0874 -1.60441V-1.137C48.0874 0.631581 49.7668 2.8802 52.7381 5.01513L56.8323 8.91864V10.9272L55.8982 11.521C40.7436 14.477 39.0642 18.1405 39.0642 19.6817V21.0966C39.0642 22.3977 39.4319 24.1663 42.5026 25.1138C48.9221 22.3977 54.4076 21.0966 59.5254 21.0966H64.3649L63.0631 23.4589C61.2048 26.8824 57.6671 31.3796 52.3704 37.0517L52.0922 37.2917C46.9744 40.4878 46.6961 42.0163 46.6961 42.2564V43.3175C46.6961 44.265 46.885 45.2124 48.6538 45.5661H49.0215C51.1581 45.5661 55.7193 43.2038 65.3885 31.847L67.2468 29.7247L67.3362 32.9208C67.6144 41.789 67.9921 44.0376 68.1709 44.6313L68.2604 45.2251C68.2604 51.8446 69.2839 55.1544 71.4205 55.1544H72.9111C73.4676 55.1544 75.0476 55.1544 76.0712 50.3034L75.7929 47.8148L75.5147 34.4493L77.4724 36.698C81.5666 41.3089 85.1043 43.6712 88.0756 43.6712H88.9104C91.2357 43.3175 91.514 42.0163 91.514 40.7152C91.514 38.9466 90.9575 37.2917 89.7451 35.3968L77.8401 22.6251H89.4669C99.136 22.6251 99.136 18.3679 99.136 17.0667V17.0794Z" fill="#BB62FF"/>
<path d="M107.722 86.4835C90.2423 82.3399 85.3133 91.0944 83.0774 99.1288C78.3372 115.564 82.7991 122.651 86.5157 126.441C92.5577 132.593 97.3078 134.841 100.557 132.947L109.203 127.982L106.967 139.692C104.731 151.277 101.014 162.04 95.7079 172.449C90.7789 181.431 91.4248 184.387 91.4248 184.387C92.3589 185.928 93.8396 187.697 98.2121 187.457C99.1462 187.457 103.886 186.156 113.655 167.472C120.631 153.993 124.815 136.85 126.027 116.751C126.862 99.3688 121.098 89.7932 107.702 86.4835H107.722Z" fill="#EDEFFE"/>
<path d="M48.9918 73.8508C48.4353 73.8508 47.2229 74.5582 45.7323 75.9731C43.6852 80.2303 36.898 98.7877 16.3474 160.865C4.35288 189.832 -2.15614 211.118 -3.09025 224.243L-3.17969 225.784C-3.17969 227.086 -2.99088 232.518 -1.32139 232.644L0.815149 232.884C0.904585 232.884 2.86226 232.644 8.53654 223.308C15.1449 211.017 30.5778 164.667 54.4872 85.9276L54.676 82.6179C54.8648 79.9018 54.5866 76.112 49.0018 73.8634L48.9918 73.8508Z" fill="#EDEFFE"/>
<path d="M134.523 9.65134C118.623 12.4937 116.477 21.8293 116.477 29.6363C120.293 63.8078 131.353 67.825 139.353 67.825H144.838C166.979 61.4455 166.979 51.2761 166.979 47.84V41.6879C157.767 20.1744 147.074 9.65134 134.523 9.65134Z" fill="#EDEFFE"/>
<path d="M830.908 -13.075C830.352 -13.075 829.14 -12.3675 827.659 -10.9527C825.612 -6.58174 818.825 11.9883 798.264 73.9392C786.27 102.906 779.761 124.192 778.826 137.431L778.737 138.846C778.737 140.261 778.926 145.579 780.595 145.819L782.732 146.059C782.732 146.059 784.779 145.819 790.453 136.484C797.052 124.192 812.494 77.8427 836.394 -0.897017L836.583 -4.20679C836.772 -6.92282 836.394 -10.7126 830.908 -13.075Z" fill="#EDEFFE"/>
<path d="M715.416 17.0794C714.949 14.8307 714.024 11.8747 712.444 11.8747L702.586 12.2284H694.497L698.214 6.79634C704.812 -0.176912 705.19 -2.07182 705.19 -2.18551V-4.08042C705.19 -4.91418 705.19 -6.92278 701.841 -7.39019C701.195 -7.39019 698.582 -6.32904 691.794 3.24655L691.427 3.71396H689.847L689.479 2.41279C689.29 -0.0758514 689.111 -1.25069 689.012 -1.84443H688.734L688.644 -3.1456C687.809 -10.9526 686.229 -15.2098 684.182 -15.2098C681.112 -15.2098 680.366 -13.3149 680.088 -11.5464H680.177L682.135 2.52649V5.72256L680.277 3.71396C672.277 -4.68679 669.485 -5.97533 668.461 -5.97533H667.627C666.603 -5.97533 665.301 -5.50792 664.367 -1.60441V-1.137C664.367 0.631581 666.046 2.8802 669.018 5.01513L673.112 8.91864V10.9272L672.178 11.521C657.023 14.477 655.344 18.1405 655.344 19.6817V21.0966C655.344 22.3977 655.712 24.1663 658.782 25.1138C665.202 22.3977 670.687 21.0966 675.805 21.0966H680.645L679.343 23.4589C677.484 26.8824 673.947 31.3796 668.65 37.0517L668.372 37.2917C663.254 40.4878 662.976 42.0163 662.976 42.2564V43.3175C662.976 44.265 663.165 45.2124 664.934 45.5661H665.301C667.438 45.5661 671.999 43.2038 681.668 31.847L683.526 29.7247L683.616 32.9208C683.894 41.789 684.272 44.0376 684.451 44.6313L684.54 45.2251C684.54 51.8446 685.564 55.1544 687.7 55.1544H689.191C689.747 55.1544 691.327 55.1544 692.351 50.3034L692.073 47.8148L691.794 34.4493L693.752 36.698C697.846 41.3089 701.384 43.6712 704.355 43.6712H705.19C707.515 43.3175 707.794 42.0163 707.794 40.7152C707.794 38.9466 707.237 37.2917 706.025 35.3968L694.12 22.6251H705.747C715.416 22.6251 715.416 18.3679 715.416 17.0667V17.0794Z" fill="#7E71FE"/>
<path d="M724.002 86.4835C706.522 82.3399 701.593 91.0944 699.357 99.1288C694.617 115.564 699.079 122.651 702.795 126.441C708.837 132.593 713.587 134.841 716.837 132.947L725.482 127.982L723.246 139.692C721.011 151.277 717.294 162.04 711.987 172.449C707.058 181.431 707.704 184.387 707.704 184.387C708.638 185.928 710.119 187.697 714.492 187.457C715.426 187.457 720.166 186.156 729.934 167.472C736.91 153.993 741.094 136.85 742.306 116.751C743.141 99.3688 737.378 89.7932 723.982 86.4835H724.002Z" fill="#EDEFFE"/>
<path d="M665.271 73.8508C664.715 73.8508 663.503 74.5582 662.012 75.9731C659.965 80.2303 653.178 98.7877 632.627 160.865C620.632 189.832 614.123 211.118 613.189 224.243L613.1 225.784C613.1 227.086 613.289 232.518 614.958 232.644L617.095 232.884C617.184 232.884 619.142 232.644 624.816 223.308C631.425 211.017 646.857 164.667 670.767 85.9276L670.956 82.6179C671.144 79.9018 670.866 76.112 665.281 73.8634L665.271 73.8508Z" fill="#EDEFFE"/>
<path d="M750.802 9.65134C734.903 12.4937 732.756 21.8293 732.756 29.6363C736.572 63.8078 747.632 67.825 755.632 67.825H761.118C783.258 61.4455 783.258 51.2761 783.258 47.84V41.6879C774.046 20.1744 763.353 9.65134 750.802 9.65134Z" fill="#EDEFFE"/>
<path d="M419.837 -13.075C419.281 -13.075 418.068 -12.3675 416.587 -10.9527C414.54 -6.58174 407.753 11.9883 387.193 73.9392C375.198 102.906 368.689 124.192 367.755 137.431L367.666 138.846C367.666 140.261 367.854 145.579 369.524 145.819L371.66 146.059C371.66 146.059 373.707 145.819 379.382 136.484C385.98 124.192 401.423 77.8427 425.323 -0.897017L425.511 -4.20679C425.7 -6.92282 425.322 -10.7126 419.837 -13.075Z" fill="#EDEFFE"/>
<path d="M304.334 17.0794C303.867 14.8307 302.943 11.8747 301.363 11.8747L291.505 12.2284H283.416L287.132 6.79634C293.731 -0.176912 294.108 -2.07182 294.108 -2.18551V-4.08042C294.108 -4.91418 294.108 -6.92278 290.759 -7.39019C290.113 -7.39019 287.5 -6.32904 280.713 3.24655L280.345 3.71396H278.765L278.397 2.41279C278.208 -0.0758514 278.03 -1.25069 277.93 -1.84443H277.652L277.563 -3.1456C276.728 -10.9526 275.148 -15.2098 273.101 -15.2098C270.03 -15.2098 269.285 -13.3149 269.006 -11.5464H269.096L271.054 2.52649V5.72256L269.195 3.71396C261.196 -4.68679 258.403 -5.97533 257.38 -5.97533H256.545C255.521 -5.97533 254.219 -5.50792 253.285 -1.60441V-1.137C253.285 0.631581 254.965 2.8802 257.936 5.01513L262.03 8.91864V10.9272L261.096 11.521C245.942 14.477 244.262 18.1405 244.262 19.6817V21.0966C244.262 22.3977 244.63 24.1663 247.701 25.1138C254.12 22.3977 259.606 21.0966 264.723 21.0966H269.563L268.261 23.4589C266.403 26.8824 262.865 31.3796 257.568 37.0517L257.29 37.2917C252.172 40.4878 251.894 42.0163 251.894 42.2564V43.3175C251.894 44.265 252.083 45.2124 253.852 45.5661H254.219C256.356 45.5661 260.917 43.2038 270.586 31.847L272.445 29.7247L272.534 32.9208C272.812 41.789 273.19 44.0376 273.369 44.6313L273.458 45.2251C273.458 51.8446 274.482 55.1544 276.618 55.1544H278.109C278.666 55.1544 280.246 55.1544 281.269 50.3034L280.991 47.8148L280.713 34.4493L282.67 36.698C286.765 41.3089 290.302 43.6712 293.274 43.6712H294.108C296.434 43.3175 296.712 42.0163 296.712 40.7152C296.712 38.9466 296.155 37.2917 294.943 35.3968L283.038 22.6251H294.665C304.334 22.6251 304.334 18.3679 304.334 17.0667V17.0794Z" fill="#F7A022"/>
<path d="M312.92 86.4835C295.44 82.3399 290.511 91.0944 288.275 99.1288C283.535 115.564 287.997 122.651 291.714 126.441C297.756 132.593 302.506 134.841 305.755 132.947L314.401 127.982L312.165 139.692C309.929 151.277 306.212 162.04 300.906 172.449C295.977 181.431 296.623 184.387 296.623 184.387C297.557 185.928 299.038 187.697 303.41 187.457C304.344 187.457 309.084 186.156 318.853 167.472C325.829 153.993 330.013 136.85 331.225 116.751C332.06 99.3688 326.296 89.7932 312.9 86.4835H312.92Z" fill="#EDEFFE"/>
<path d="M254.2 73.8508C253.643 73.8508 252.431 74.5582 250.94 75.9731C248.893 80.2303 242.106 98.7877 221.555 160.865C209.561 189.832 203.052 211.118 202.118 224.243L202.028 225.784C202.028 227.086 202.217 232.518 203.886 232.644L206.023 232.884C206.112 232.884 208.07 232.644 213.744 223.308C220.353 211.017 235.786 164.667 259.695 85.9276L259.884 82.6179C260.073 79.9018 259.794 76.112 254.209 73.8634L254.2 73.8508Z" fill="#EDEFFE"/>
<path d="M339.731 9.65134C323.831 12.4937 321.685 21.8293 321.685 29.6363C325.501 63.8078 336.561 67.825 344.561 67.825H350.046C372.187 61.4455 372.187 51.2761 372.187 47.84V41.6879C362.975 20.1744 352.282 9.65134 339.731 9.65134Z" fill="#EDEFFE"/>
<path d="M624.925 -13.075C624.369 -13.075 623.157 -12.3675 621.676 -10.9527C619.629 -6.58174 612.842 11.9883 592.281 73.9392C580.287 102.906 573.777 124.192 572.843 137.431L572.754 138.846C572.754 140.261 572.943 145.579 574.612 145.819L576.749 146.059C576.749 146.059 578.796 145.819 584.47 136.484C591.069 124.192 606.511 77.8427 630.411 -0.897017L630.6 -4.20679C630.789 -6.92282 630.411 -10.7126 624.925 -13.075Z" fill="#EDEFFE"/>
<path d="M509.433 17.0794C508.965 14.8307 508.041 11.8747 506.461 11.8747L496.603 12.2284H488.514L492.231 6.79634C498.829 -0.176912 499.207 -2.07182 499.207 -2.18551V-4.08042C499.207 -4.91418 499.207 -6.92278 495.858 -7.39019C495.212 -7.39019 492.599 -6.32904 485.811 3.24655L485.444 3.71396H483.864L483.496 2.41279C483.307 -0.0758514 483.128 -1.25069 483.029 -1.84443H482.751L482.661 -3.1456C481.826 -10.9526 480.246 -15.2098 478.199 -15.2098C475.129 -15.2098 474.383 -13.3149 474.105 -11.5464H474.194L476.152 2.52649V5.72256L474.294 3.71396C466.294 -4.68679 463.502 -5.97533 462.478 -5.97533H461.643C460.62 -5.97533 459.318 -5.50792 458.384 -1.60441V-1.137C458.384 0.631581 460.063 2.8802 463.035 5.01513L467.129 8.91864V10.9272L466.195 11.521C451.04 14.477 449.361 18.1405 449.361 19.6817V21.0966C449.361 22.3977 449.728 24.1663 452.799 25.1138C459.219 22.3977 464.704 21.0966 469.822 21.0966H474.661L473.36 23.4589C471.501 26.8824 467.964 31.3796 462.667 37.0517L462.389 37.2917C457.271 40.4878 456.993 42.0163 456.993 42.2564V43.3175C456.993 44.265 457.182 45.2124 458.95 45.5661H459.318C461.455 45.5661 466.016 43.2038 475.685 31.847L477.543 29.7247L477.633 32.9208C477.911 41.789 478.289 44.0376 478.468 44.6313L478.557 45.2251C478.557 51.8446 479.581 55.1544 481.717 55.1544H483.208C483.764 55.1544 485.344 55.1544 486.368 50.3034L486.09 47.8148L485.811 34.4493L487.769 36.698C491.863 41.3089 495.401 43.6712 498.372 43.6712H499.207C501.532 43.3175 501.811 42.0163 501.811 40.7152C501.811 38.9466 501.254 37.2917 500.042 35.3968L488.137 22.6251H499.763C509.433 22.6251 509.433 18.3679 509.433 17.0667V17.0794Z" fill="#09CA5F"/>
<path d="M518.018 86.4835C500.538 82.3399 495.609 91.0944 493.374 99.1288C488.633 115.564 493.095 122.651 496.812 126.441C502.854 132.593 507.604 134.841 510.853 132.947L519.499 127.982L517.263 139.692C515.027 151.277 511.311 162.04 506.004 172.449C501.075 181.431 501.721 184.387 501.721 184.387C502.655 185.928 504.136 187.697 508.508 187.457C509.442 187.457 514.183 186.156 523.951 167.472C530.927 153.993 535.111 136.85 536.323 116.751C537.158 99.3688 531.394 89.7932 517.998 86.4835H518.018Z" fill="#EDEFFE"/>
<path d="M459.288 73.8508C458.732 73.8508 457.52 74.5582 456.029 75.9731C453.982 80.2303 447.195 98.7877 426.644 160.865C414.649 189.832 408.14 211.118 407.206 224.243L407.117 225.784C407.117 227.086 407.306 232.518 408.975 232.644L411.112 232.884C411.201 232.884 413.159 232.644 418.833 223.308C425.442 211.017 440.874 164.667 464.784 85.9276L464.973 82.6179C465.161 79.9018 464.883 76.112 459.298 73.8634L459.288 73.8508Z" fill="#EDEFFE"/>
<path d="M544.82 9.65134C528.92 12.4937 526.774 21.8293 526.774 29.6363C530.59 63.8078 541.65 67.825 549.65 67.825H555.135C577.276 61.4455 577.276 51.2761 577.276 47.84V41.6879C568.064 20.1744 557.371 9.65134 544.82 9.65134Z" fill="#EDEFFE"/>
<path d="M214.629 515.642C214.072 515.642 212.86 516.349 211.379 517.764C209.332 522.135 202.545 540.705 181.984 602.656C169.99 631.623 163.481 652.909 162.547 666.148L162.457 667.563C162.457 668.978 162.646 674.296 164.316 674.536L166.452 674.776C166.452 674.776 168.499 674.536 174.174 665.201C180.772 652.909 196.215 606.56 220.114 527.82L220.303 524.51C220.492 521.794 220.114 518.004 214.629 515.642Z" fill="#EDEFFE"/>
<path d="M99.136 545.784C98.6689 543.535 97.7447 540.579 96.1647 540.579L86.3067 540.933H78.2177L81.9343 535.501C88.5327 528.527 88.9104 526.632 88.9104 526.519V524.624C88.9104 523.79 88.9104 521.781 85.5614 521.314C84.9155 521.314 82.302 522.375 75.5147 531.951L75.147 532.418H73.567L73.1993 531.117C73.0105 528.628 72.8316 527.454 72.7322 526.86H72.454L72.3645 525.559C71.5298 517.752 69.9497 513.494 67.9026 513.494C64.832 513.494 64.0867 515.389 63.8084 517.158H63.8979L65.8555 531.231V534.427L63.9972 532.418C55.9976 524.017 53.2052 522.729 52.1816 522.729H51.3469C50.3233 522.729 49.0215 523.196 48.0874 527.1V527.567C48.0874 529.336 49.7668 531.584 52.7381 533.719L56.8323 537.623V539.632L55.8982 540.225C40.7436 543.181 39.0642 546.845 39.0642 548.386V549.801C39.0642 551.102 39.4319 552.871 42.5026 553.818C48.9221 551.102 54.4076 549.801 59.5254 549.801H64.3649L63.0631 552.163C61.2048 555.587 57.6671 560.084 52.3704 565.756L52.0922 565.996C46.9744 569.192 46.6961 570.721 46.6961 570.961V572.022C46.6961 572.969 46.885 573.917 48.6538 574.27H49.0215C51.1581 574.27 55.7193 571.908 65.3885 560.551L67.2468 558.429L67.3362 561.625C67.6144 570.493 67.9921 572.742 68.1709 573.336L68.2604 573.929C68.2604 580.549 69.2839 583.859 71.4205 583.859H72.9111C73.4676 583.859 75.0476 583.859 76.0712 579.008L75.7929 576.519L75.5147 563.154L77.4724 565.402C81.5666 570.013 85.1043 572.375 88.0756 572.375H88.9104C91.2357 572.022 91.514 570.721 91.514 569.419C91.514 567.651 90.9575 565.996 89.7451 564.101L77.8401 551.329H89.4669C99.136 551.329 99.136 547.072 99.136 545.771V545.784Z" fill="#BB62FF"/>
<path d="M107.722 615.188C90.2423 611.044 85.3133 619.799 83.0774 627.833C78.3372 644.268 82.7991 651.355 86.5157 655.145C92.5577 661.297 97.3078 663.546 100.557 661.651L109.203 656.686L106.967 668.397C104.731 679.981 101.014 690.744 95.7079 701.153C90.7789 710.135 91.4248 713.091 91.4248 713.091C92.3589 714.632 93.8396 716.401 98.2121 716.161C99.1462 716.161 103.886 714.86 113.655 696.176C120.631 682.697 124.815 665.554 126.027 645.456C126.862 628.073 121.098 618.498 107.702 615.188H107.722Z" fill="#EDEFFE"/>
<path d="M48.9918 602.555C48.4353 602.555 47.2229 603.263 45.7323 604.677C43.6852 608.935 36.898 627.492 16.3474 689.569C4.35288 718.536 -2.15614 739.822 -3.09025 752.948L-3.17969 754.489C-3.17969 755.79 -2.99088 761.222 -1.32139 761.348L0.815149 761.588C0.904585 761.588 2.86226 761.348 8.53654 752.013C15.1449 739.721 30.5778 693.372 54.4872 614.632L54.676 611.322C54.8648 608.606 54.5866 604.816 49.0018 602.568L48.9918 602.555Z" fill="#EDEFFE"/>
<path d="M134.523 538.368C118.623 541.211 116.477 550.546 116.477 558.353C120.293 592.525 131.353 596.542 139.353 596.542H144.838C166.979 590.162 166.979 579.993 166.979 576.557V570.405C157.767 548.891 147.074 538.368 134.523 538.368Z" fill="#EDEFFE"/>
<path d="M830.908 515.642C830.352 515.642 829.14 516.349 827.659 517.764C825.612 522.135 818.825 540.705 798.264 602.656C786.27 631.623 779.761 652.909 778.826 666.148L778.737 667.563C778.737 668.978 778.926 674.296 780.595 674.536L782.732 674.776C782.732 674.776 784.779 674.536 790.453 665.201C797.052 652.909 812.494 606.56 836.394 527.82L836.583 524.51C836.772 521.794 836.394 518.004 830.908 515.642Z" fill="#EDEFFE"/>
<path d="M715.416 545.784C714.949 543.535 714.024 540.579 712.444 540.579L702.586 540.933H694.497L698.214 535.501C704.812 528.527 705.19 526.632 705.19 526.519V524.624C705.19 523.79 705.19 521.781 701.841 521.314C701.195 521.314 698.582 522.375 691.794 531.951L691.427 532.418H689.847L689.479 531.117C689.29 528.628 689.111 527.454 689.012 526.86H688.734L688.644 525.559C687.809 517.752 686.229 513.494 684.182 513.494C681.112 513.494 680.366 515.389 680.088 517.158H680.177L682.135 531.231V534.427L680.277 532.418C672.277 524.017 669.485 522.729 668.461 522.729H667.627C666.603 522.729 665.301 523.196 664.367 527.1V527.567C664.367 529.336 666.046 531.584 669.018 533.719L673.112 537.623V539.632L672.178 540.225C657.023 543.181 655.344 546.845 655.344 548.386V549.801C655.344 551.102 655.712 552.871 658.782 553.818C665.202 551.102 670.687 549.801 675.805 549.801H680.645L679.343 552.163C677.484 555.587 673.947 560.084 668.65 565.756L668.372 565.996C663.254 569.192 662.976 570.721 662.976 570.961V572.022C662.976 572.969 663.165 573.917 664.934 574.27H665.301C667.438 574.27 671.999 571.908 681.668 560.551L683.526 558.429L683.616 561.625C683.894 570.493 684.272 572.742 684.451 573.336L684.54 573.929C684.54 580.549 685.564 583.859 687.7 583.859H689.191C689.747 583.859 691.327 583.859 692.351 579.008L692.073 576.519L691.794 563.154L693.752 565.402C697.846 570.013 701.384 572.375 704.355 572.375H705.19C707.515 572.022 707.794 570.721 707.794 569.419C707.794 567.651 707.237 565.996 706.025 564.101L694.12 551.329H705.747C715.416 551.329 715.416 547.072 715.416 545.771V545.784Z" fill="#7E71FE"/>
<path d="M724.002 615.188C706.522 611.044 701.593 619.799 699.357 627.833C694.617 644.268 699.079 651.355 702.795 655.145C708.837 661.297 713.587 663.546 716.837 661.651L725.482 656.686L723.246 668.397C721.011 679.981 717.294 690.744 711.987 701.153C707.058 710.135 707.704 713.091 707.704 713.091C708.638 714.632 710.119 716.401 714.492 716.161C715.426 716.161 720.166 714.86 729.934 696.176C736.91 682.697 741.094 665.554 742.306 645.456C743.141 628.073 737.378 618.498 723.982 615.188H724.002Z" fill="#EDEFFE"/>
<path d="M665.271 602.555C664.715 602.555 663.503 603.263 662.012 604.677C659.965 608.935 653.178 627.492 632.627 689.569C620.632 718.536 614.123 739.822 613.189 752.948L613.1 754.489C613.1 755.79 613.289 761.222 614.958 761.348L617.095 761.588C617.184 761.588 619.142 761.348 624.816 752.013C631.425 739.721 646.857 693.372 670.767 614.632L670.956 611.322C671.144 608.606 670.866 604.816 665.281 602.568L665.271 602.555Z" fill="#EDEFFE"/>
<path d="M750.802 538.368C734.903 541.211 732.756 550.546 732.756 558.353C736.572 592.525 747.632 596.542 755.632 596.542H761.118C783.258 590.162 783.258 579.993 783.258 576.557V570.405C774.046 548.891 763.353 538.368 750.802 538.368Z" fill="#EDEFFE"/>
<path d="M419.837 515.642C419.281 515.642 418.068 516.349 416.587 517.764C414.54 522.135 407.753 540.705 387.193 602.656C375.198 631.623 368.689 652.909 367.755 666.148L367.666 667.563C367.666 668.978 367.854 674.296 369.524 674.536L371.66 674.776C371.66 674.776 373.707 674.536 379.382 665.201C385.98 652.909 401.423 606.56 425.323 527.82L425.511 524.51C425.7 521.794 425.322 518.004 419.837 515.642Z" fill="#EDEFFE"/>
<path d="M304.334 545.784C303.867 543.535 302.943 540.579 301.363 540.579L291.505 540.933H283.416L287.132 535.501C293.731 528.527 294.108 526.632 294.108 526.519V524.624C294.108 523.79 294.108 521.781 290.759 521.314C290.113 521.314 287.5 522.375 280.713 531.951L280.345 532.418H278.765L278.397 531.117C278.208 528.628 278.03 527.454 277.93 526.86H277.652L277.563 525.559C276.728 517.752 275.148 513.494 273.101 513.494C270.03 513.494 269.285 515.389 269.006 517.158H269.096L271.054 531.231V534.427L269.195 532.418C261.196 524.017 258.403 522.729 257.38 522.729H256.545C255.521 522.729 254.219 523.196 253.285 527.1V527.567C253.285 529.336 254.965 531.584 257.936 533.719L262.03 537.623V539.632L261.096 540.225C245.942 543.181 244.262 546.845 244.262 548.386V549.801C244.262 551.102 244.63 552.871 247.701 553.818C254.12 551.102 259.606 549.801 264.723 549.801H269.563L268.261 552.163C266.403 555.587 262.865 560.084 257.568 565.756L257.29 565.996C252.172 569.192 251.894 570.721 251.894 570.961V572.022C251.894 572.969 252.083 573.917 253.852 574.27H254.219C256.356 574.27 260.917 571.908 270.586 560.551L272.445 558.429L272.534 561.625C272.812 570.493 273.19 572.742 273.369 573.336L273.458 573.929C273.458 580.549 274.482 583.859 276.618 583.859H278.109C278.666 583.859 280.246 583.859 281.269 579.008L280.991 576.519L280.713 563.154L282.67 565.402C286.765 570.013 290.302 572.375 293.274 572.375H294.108C296.434 572.022 296.712 570.721 296.712 569.419C296.712 567.651 296.155 565.996 294.943 564.101L283.038 551.329H294.665C304.334 551.329 304.334 547.072 304.334 545.771V545.784Z" fill="#F7A022"/>
<path d="M312.92 615.188C295.44 611.044 290.511 619.799 288.275 627.833C283.535 644.268 287.997 651.355 291.714 655.145C297.756 661.297 302.506 663.546 305.755 661.651L314.401 656.686L312.165 668.397C309.929 679.981 306.212 690.744 300.906 701.153C295.977 710.135 296.623 713.091 296.623 713.091C297.557 714.632 299.038 716.401 303.41 716.161C304.344 716.161 309.084 714.86 318.853 696.176C325.829 682.697 330.013 665.554 331.225 645.456C332.06 628.073 326.296 618.498 312.9 615.188H312.92Z" fill="#EDEFFE"/>
<path d="M254.2 602.555C253.643 602.555 252.431 603.263 250.94 604.677C248.893 608.935 242.106 627.492 221.555 689.569C209.561 718.536 203.052 739.822 202.118 752.948L202.028 754.489C202.028 755.79 202.217 761.222 203.886 761.348L206.023 761.588C206.112 761.588 208.07 761.348 213.744 752.013C220.353 739.721 235.786 693.372 259.695 614.632L259.884 611.322C260.073 608.606 259.794 604.816 254.209 602.568L254.2 602.555Z" fill="#EDEFFE"/>
<path d="M339.731 538.368C323.831 541.211 321.685 550.546 321.685 558.353C325.501 592.525 336.561 596.542 344.561 596.542H350.046C372.187 590.162 372.187 579.993 372.187 576.557V570.405C362.975 548.891 352.282 538.368 339.731 538.368Z" fill="#EDEFFE"/>
<path d="M624.925 515.642C624.369 515.642 623.157 516.349 621.676 517.764C619.629 522.135 612.842 540.705 592.281 602.656C580.287 631.623 573.777 652.909 572.843 666.148L572.754 667.563C572.754 668.978 572.943 674.296 574.612 674.536L576.749 674.776C576.749 674.776 578.796 674.536 584.47 665.201C591.069 652.909 606.511 606.56 630.411 527.82L630.6 524.51C630.789 521.794 630.411 518.004 624.925 515.642Z" fill="#EDEFFE"/>
<path d="M509.433 545.784C508.965 543.535 508.041 540.579 506.461 540.579L496.603 540.933H488.514L492.231 535.501C498.829 528.527 499.207 526.632 499.207 526.519V524.624C499.207 523.79 499.207 521.781 495.858 521.314C495.212 521.314 492.599 522.375 485.811 531.951L485.444 532.418H483.864L483.496 531.117C483.307 528.628 483.128 527.454 483.029 526.86H482.751L482.661 525.559C481.826 517.752 480.246 513.494 478.199 513.494C475.129 513.494 474.383 515.389 474.105 517.158H474.194L476.152 531.231V534.427L474.294 532.418C466.294 524.017 463.502 522.729 462.478 522.729H461.643C460.62 522.729 459.318 523.196 458.384 527.1V527.567C458.384 529.336 460.063 531.584 463.035 533.719L467.129 537.623V539.632L466.195 540.225C451.04 543.181 449.361 546.845 449.361 548.386V549.801C449.361 551.102 449.728 552.871 452.799 553.818C459.219 551.102 464.704 549.801 469.822 549.801H474.661L473.36 552.163C471.501 555.587 467.964 560.084 462.667 565.756L462.389 565.996C457.271 569.192 456.993 570.721 456.993 570.961V572.022C456.993 572.969 457.182 573.917 458.95 574.27H459.318C461.455 574.27 466.016 571.908 475.685 560.551L477.543 558.429L477.633 561.625C477.911 570.493 478.289 572.742 478.468 573.336L478.557 573.929C478.557 580.549 479.581 583.859 481.717 583.859H483.208C483.764 583.859 485.344 583.859 486.368 579.008L486.09 576.519L485.811 563.154L487.769 565.402C491.863 570.013 495.401 572.375 498.372 572.375H499.207C501.532 572.022 501.811 570.721 501.811 569.419C501.811 567.651 501.254 565.996 500.042 564.101L488.137 551.329H499.763C509.433 551.329 509.433 547.072 509.433 545.771V545.784Z" fill="#09CA5F"/>
<path d="M518.018 615.188C500.538 611.044 495.609 619.799 493.374 627.833C488.633 644.268 493.095 651.355 496.812 655.145C502.854 661.297 507.604 663.546 510.853 661.651L519.499 656.686L517.263 668.397C515.027 679.981 511.311 690.744 506.004 701.153C501.075 710.135 501.721 713.091 501.721 713.091C502.655 714.632 504.136 716.401 508.508 716.161C509.442 716.161 514.183 714.86 523.951 696.176C530.927 682.697 535.111 665.554 536.323 645.456C537.158 628.073 531.394 618.498 517.998 615.188H518.018Z" fill="#EDEFFE"/>
<path d="M459.288 602.555C458.732 602.555 457.52 603.263 456.029 604.677C453.982 608.935 447.195 627.492 426.644 689.569C414.649 718.536 408.14 739.822 407.206 752.948L407.117 754.489C407.117 755.79 407.306 761.222 408.975 761.348L411.112 761.588C411.201 761.588 413.159 761.348 418.833 752.013C425.442 739.721 440.874 693.372 464.784 614.632L464.973 611.322C465.161 608.606 464.883 604.816 459.298 602.568L459.288 602.555Z" fill="#EDEFFE"/>
<path d="M544.82 538.368C528.92 541.211 526.774 550.546 526.774 558.353C530.59 592.525 541.65 596.542 549.65 596.542H555.135C577.276 590.162 577.276 579.993 577.276 576.557V570.405C568.064 548.891 557.371 538.368 544.82 538.368Z" fill="#EDEFFE"/>
<path d="M84.1405 244.38C83.584 244.38 82.3716 245.087 80.891 246.502C78.8438 250.873 72.0566 269.443 51.496 331.394C39.5016 360.361 32.9925 381.647 32.0584 394.886L31.969 396.301C31.969 397.716 32.1578 403.034 33.8273 403.274L35.9638 403.514C35.9638 403.514 38.0109 403.274 43.6852 393.939C50.2837 381.647 65.7264 335.297 89.626 256.558L89.8148 253.248C90.0036 250.532 89.626 246.742 84.1405 244.38Z" fill="#EDEFFE"/>
<path d="M4.0349 267.093C-11.865 269.936 -14.0115 279.271 -14.0115 287.078C-10.1955 321.25 0.864861 325.267 8.86449 325.267H14.35C36.4905 318.888 36.4905 308.718 36.4905 305.282V299.13C27.2785 277.617 16.5859 267.093 4.0349 267.093Z" fill="#EDEFFE"/>
<path d="M787.69 274.521C787.223 272.273 786.299 269.317 784.719 269.317L774.861 269.671H766.772L770.488 264.238C777.087 257.265 777.464 255.37 777.464 255.257V253.362C777.464 252.528 777.464 250.519 774.116 250.052C773.47 250.052 770.856 251.113 764.069 260.689L763.701 261.156H762.121L761.753 259.855C761.565 257.366 761.386 256.191 761.286 255.598H761.008L760.919 254.297C760.084 246.489 758.504 242.232 756.457 242.232C753.386 242.232 752.641 244.127 752.363 245.896H752.452L754.41 259.969V263.165L752.551 261.156C744.552 252.755 741.759 251.467 740.736 251.467H739.901C738.877 251.467 737.576 251.934 736.641 255.838V256.305C736.641 258.074 738.321 260.322 741.292 262.457L745.386 266.361V268.369L744.452 268.963C729.298 271.919 727.618 275.583 727.618 277.124V278.539C727.618 279.84 727.986 281.608 731.057 282.556C737.476 279.84 742.962 278.539 748.079 278.539H752.919L751.617 280.901C749.759 284.324 746.221 288.822 740.925 294.494L740.646 294.734C735.529 297.93 735.25 299.458 735.25 299.698V300.76C735.25 301.707 735.439 302.655 737.208 303.008H737.576C739.712 303.008 744.273 300.646 753.943 289.289L755.801 287.167L755.89 290.363C756.169 299.231 756.546 301.48 756.725 302.073L756.814 302.667C756.814 309.287 757.838 312.596 759.975 312.596H761.465C762.022 312.596 763.602 312.596 764.625 307.746L764.347 305.257L764.069 291.891L766.026 294.14C770.121 298.751 773.658 301.113 776.63 301.113H777.464C779.79 300.76 780.068 299.458 780.068 298.157C780.068 296.389 779.512 294.734 778.299 292.839L766.394 280.067H778.021C787.69 280.067 787.69 275.81 787.69 274.509V274.521Z" fill="#BB62FF"/>
<path d="M796.276 343.926C778.796 339.782 773.867 348.537 771.631 356.571C766.891 373.006 771.353 380.093 775.07 383.883C781.112 390.035 785.862 392.284 789.111 390.389L797.757 385.424L795.521 397.135C793.285 408.719 789.568 419.482 784.262 429.891C779.333 438.873 779.979 441.829 779.979 441.829C780.913 443.37 782.394 445.139 786.766 444.899C787.7 444.899 792.44 443.598 802.209 424.914C809.185 411.435 813.369 394.292 814.581 374.194C815.416 356.811 809.652 347.235 796.256 343.926H796.276Z" fill="#EDEFFE"/>
<path d="M737.546 331.293C736.99 331.293 735.777 332 734.287 333.415C732.24 337.672 725.452 356.23 704.902 418.307C692.907 447.274 686.398 468.56 685.464 481.685L685.375 483.226C685.375 484.528 685.564 489.96 687.233 490.086L689.37 490.326C689.459 490.326 691.417 490.086 697.091 480.75C703.699 468.459 719.132 422.109 743.042 343.37L743.231 340.06C743.419 337.344 743.141 333.554 737.556 331.306L737.546 331.293Z" fill="#EDEFFE"/>
<path d="M823.077 267.093C807.178 269.936 805.031 279.271 805.031 287.078C808.847 321.25 819.907 325.267 827.907 325.267H833.392C855.533 318.888 855.533 308.718 855.533 305.282V299.13C846.321 277.617 835.628 267.093 823.077 267.093Z" fill="#EDEFFE"/>
<path d="M700.421 244.38C699.864 244.38 698.652 245.087 697.171 246.502C695.124 250.873 688.337 269.443 667.776 331.394C655.782 360.361 649.273 381.647 648.338 394.886L648.249 396.301C648.249 397.716 648.438 403.034 650.107 403.274L652.244 403.514C652.244 403.514 654.291 403.274 659.965 393.939C666.564 381.647 682.006 335.297 705.906 256.558L706.095 253.248C706.284 250.532 705.906 246.742 700.421 244.38Z" fill="#EDEFFE"/>
<path d="M584.917 274.521C584.45 272.273 583.526 269.317 581.946 269.317L572.088 269.671H563.999L567.716 264.238C574.314 257.265 574.692 255.37 574.692 255.257V253.362C574.692 252.528 574.692 250.519 571.343 250.052C570.697 250.052 568.083 251.113 561.296 260.689L560.928 261.156H559.348L558.981 259.855C558.792 257.366 558.613 256.191 558.514 255.598H558.235L558.146 254.297C557.311 246.489 555.731 242.232 553.684 242.232C550.613 242.232 549.868 244.127 549.59 245.896H549.679L551.637 259.969V263.165L549.779 261.156C541.779 252.755 538.987 251.467 537.963 251.467H537.128C536.105 251.467 534.803 251.934 533.869 255.838V256.305C533.869 258.074 535.548 260.322 538.519 262.457L542.614 266.361V268.369L541.68 268.963C526.525 271.919 524.846 275.583 524.846 277.124V278.539C524.846 279.84 525.213 281.608 528.284 282.556C534.704 279.84 540.189 278.539 545.307 278.539H550.146L548.844 280.901C546.986 284.324 543.448 288.822 538.152 294.494L537.874 294.734C532.756 297.93 532.478 299.458 532.478 299.698V300.76C532.478 301.707 532.666 302.655 534.435 303.008H534.803C536.939 303.008 541.501 300.646 551.17 289.289L553.028 287.167L553.118 290.363C553.396 299.231 553.773 301.48 553.952 302.073L554.042 302.667C554.042 309.287 555.065 312.596 557.202 312.596H558.692C559.249 312.596 560.829 312.596 561.853 307.746L561.574 305.257L561.296 291.891L563.254 294.14C567.348 298.751 570.886 301.113 573.857 301.113H574.692C577.017 300.76 577.295 299.458 577.295 298.157C577.295 296.389 576.739 294.734 575.526 292.839L563.621 280.067H575.248C584.917 280.067 584.917 275.81 584.917 274.509V274.521Z" fill="#7E71FE"/>
<path d="M593.503 343.926C576.024 339.782 571.095 348.537 568.859 356.571C564.118 373.006 568.58 380.093 572.297 383.883C578.339 390.035 583.089 392.284 586.339 390.389L594.984 385.424L592.748 397.135C590.512 408.719 586.796 419.482 581.489 429.891C576.56 438.873 577.206 441.829 577.206 441.829C578.14 443.37 579.621 445.139 583.993 444.899C584.927 444.899 589.668 443.598 599.436 424.914C606.412 411.435 610.596 394.292 611.808 374.194C612.643 356.811 606.879 347.235 593.484 343.926H593.503Z" fill="#EDEFFE"/>
<path d="M534.783 331.293C534.226 331.293 533.014 332 531.523 333.415C529.476 337.672 522.689 356.23 502.138 418.307C490.144 447.274 483.635 468.56 482.701 481.685L482.611 483.226C482.611 484.528 482.8 489.96 484.47 490.086L486.606 490.326C486.696 490.326 488.653 490.086 494.328 480.75C500.936 468.459 516.369 422.109 540.278 343.37L540.467 340.06C540.656 337.344 540.378 333.554 534.793 331.306L534.783 331.293Z" fill="#EDEFFE"/>
<path d="M620.305 267.093C604.405 269.936 602.258 279.271 602.258 287.078C606.074 321.25 617.135 325.267 625.134 325.267H630.62C652.76 318.888 652.76 308.718 652.76 305.282V299.13C643.548 277.617 632.856 267.093 620.305 267.093Z" fill="#EDEFFE"/>
<path d="M289.339 244.38C288.782 244.38 287.57 245.087 286.089 246.502C284.042 250.873 277.255 269.443 256.695 331.394C244.7 360.361 238.191 381.647 237.257 394.886L237.167 396.301C237.167 397.716 237.356 403.034 239.026 403.274L241.162 403.514C241.162 403.514 243.209 403.274 248.884 393.939C255.482 381.647 270.925 335.297 294.824 256.558L295.013 253.248C295.202 250.532 294.824 246.742 289.339 244.38Z" fill="#EDEFFE"/>
<path d="M173.836 274.521C173.369 272.273 172.445 269.317 170.865 269.317L161.007 269.671H152.918L156.634 264.238C163.233 257.265 163.611 255.37 163.611 255.257V253.362C163.611 252.528 163.611 250.519 160.262 250.052C159.616 250.052 157.002 251.113 150.215 260.689L149.847 261.156H148.267L147.899 259.855C147.711 257.366 147.532 256.191 147.432 255.598H147.154L147.065 254.297C146.23 246.489 144.65 242.232 142.603 242.232C139.532 242.232 138.787 244.127 138.509 245.896H138.598L140.556 259.969V263.165L138.697 261.156C130.698 252.755 127.905 251.467 126.882 251.467H126.047C125.023 251.467 123.722 251.934 122.788 255.838V256.305C122.788 258.074 124.467 260.322 127.438 262.457L131.533 266.361V268.369L130.598 268.963C115.444 271.919 113.764 275.583 113.764 277.124V278.539C113.764 279.84 114.132 281.608 117.203 282.556C123.622 279.84 129.108 278.539 134.226 278.539H139.065L137.763 280.901C135.905 284.324 132.367 288.822 127.071 294.494L126.792 294.734C121.675 297.93 121.396 299.458 121.396 299.698V300.76C121.396 301.707 121.585 302.655 123.354 303.008H123.722C125.858 303.008 130.42 300.646 140.089 289.289L141.947 287.167L142.036 290.363C142.315 299.231 142.692 301.48 142.871 302.073L142.961 302.667C142.961 309.287 143.984 312.596 146.121 312.596H147.611C148.168 312.596 149.748 312.596 150.771 307.746L150.493 305.257L150.215 291.891L152.173 294.14C156.267 298.751 159.805 301.113 162.776 301.113H163.611C165.936 300.76 166.214 299.458 166.214 298.157C166.214 296.389 165.658 294.734 164.445 292.839L152.54 280.067H164.167C173.836 280.067 173.836 275.81 173.836 274.509V274.521Z" fill="#F7A022"/>
<path d="M182.432 343.926C164.952 339.782 160.023 348.537 157.787 356.571C153.047 373.006 157.509 380.093 161.226 383.883C167.268 390.035 172.018 392.284 175.267 390.389L183.913 385.424L181.677 397.135C179.441 408.719 175.724 419.482 170.418 429.891C165.489 438.873 166.135 441.829 166.135 441.829C167.069 443.37 168.55 445.139 172.922 444.899C173.856 444.899 178.596 443.598 188.365 424.914C195.341 411.435 199.525 394.292 200.737 374.194C201.572 356.811 195.808 347.235 182.412 343.926H182.432Z" fill="#EDEFFE"/>
<path d="M123.702 331.293C123.145 331.293 121.933 332 120.442 333.415C118.395 337.672 111.608 356.23 91.0573 418.307C79.0628 447.274 72.5538 468.56 71.6197 481.685L71.5303 483.226C71.5303 484.528 71.7191 489.96 73.3886 490.086L75.5251 490.326C75.6146 490.326 77.5722 490.086 83.2465 480.75C89.8549 468.459 105.288 422.109 129.197 343.37L129.386 340.06C129.575 337.344 129.297 333.554 123.712 331.306L123.702 331.293Z" fill="#EDEFFE"/>
<path d="M209.233 267.093C193.333 269.936 191.187 279.271 191.187 287.078C195.003 321.25 206.063 325.267 214.063 325.267H219.548C241.689 318.888 241.689 308.718 241.689 305.282V299.13C232.477 277.617 221.784 267.093 209.233 267.093Z" fill="#EDEFFE"/>
<path d="M494.437 244.38C493.88 244.38 492.668 245.087 491.187 246.502C489.14 250.873 482.353 269.443 461.792 331.394C449.798 360.361 443.289 381.647 442.355 394.886L442.265 396.301C442.265 397.716 442.454 403.034 444.124 403.274L446.26 403.514C446.26 403.514 448.307 403.274 453.982 393.939C460.58 381.647 476.023 335.297 499.922 256.558L500.111 253.248C500.3 250.532 499.922 246.742 494.437 244.38Z" fill="#EDEFFE"/>
<path d="M378.934 274.521C378.467 272.273 377.543 269.317 375.963 269.317L366.105 269.671H358.016L361.733 264.238C368.331 257.265 368.709 255.37 368.709 255.257V253.362C368.709 252.528 368.709 250.519 365.36 250.052C364.714 250.052 362.1 251.113 355.313 260.689L354.945 261.156H353.365L352.998 259.855C352.809 257.366 352.63 256.191 352.531 255.598H352.252L352.163 254.297C351.328 246.489 349.748 242.232 347.701 242.232C344.63 242.232 343.885 244.127 343.607 245.896H343.696L345.654 259.969V263.165L343.796 261.156C335.796 252.755 333.003 251.467 331.98 251.467H331.145C330.122 251.467 328.82 251.934 327.886 255.838V256.305C327.886 258.074 329.565 260.322 332.536 262.457L336.631 266.361V268.369L335.697 268.963C320.542 271.919 318.863 275.583 318.863 277.124V278.539C318.863 279.84 319.23 281.608 322.301 282.556C328.72 279.84 334.206 278.539 339.324 278.539H344.163L342.861 280.901C341.003 284.324 337.465 288.822 332.169 294.494L331.891 294.734C326.773 297.93 326.494 299.458 326.494 299.698V300.76C326.494 301.707 326.683 302.655 328.452 303.008H328.82C330.956 303.008 335.518 300.646 345.187 289.289L347.045 287.167L347.135 290.363C347.413 299.231 347.79 301.48 347.969 302.073L348.059 302.667C348.059 309.287 349.082 312.596 351.219 312.596H352.709C353.266 312.596 354.846 312.596 355.87 307.746L355.591 305.257L355.313 291.891L357.271 294.14C361.365 298.751 364.903 301.113 367.874 301.113H368.709C371.034 300.76 371.312 299.458 371.312 298.157C371.312 296.389 370.756 294.734 369.543 292.839L357.638 280.067H369.265C378.934 280.067 378.934 275.81 378.934 274.509V274.521Z" fill="#09CA5F"/>
<path d="M387.521 343.926C370.041 339.782 365.112 348.537 362.876 356.571C358.136 373.006 362.597 380.093 366.314 383.883C372.356 390.035 377.106 392.284 380.356 390.389L389.001 385.424L386.765 397.135C384.529 408.719 380.813 419.482 375.506 429.891C370.577 438.873 371.223 441.829 371.223 441.829C372.157 443.37 373.638 445.139 378.01 444.899C378.945 444.899 383.685 443.598 393.453 424.914C400.429 411.435 404.613 394.292 405.825 374.194C406.66 356.811 400.896 347.235 387.501 343.926H387.521Z" fill="#EDEFFE"/>
<path d="M328.8 331.293C328.243 331.293 327.031 332 325.54 333.415C323.493 337.672 316.706 356.23 296.155 418.307C284.161 447.274 277.652 468.56 276.718 481.685L276.628 483.226C276.628 484.528 276.817 489.96 278.487 490.086L280.623 490.326C280.713 490.326 282.67 490.086 288.345 480.75C294.953 468.459 310.386 422.109 334.295 343.37L334.484 340.06C334.673 337.344 334.395 333.554 328.81 331.306L328.8 331.293Z" fill="#EDEFFE"/>
<path d="M414.332 267.093C398.432 269.936 396.285 279.271 396.285 287.078C400.101 321.25 411.162 325.267 419.161 325.267H424.647C446.787 318.888 446.787 308.718 446.787 305.282V299.13C437.575 277.617 426.883 267.093 414.332 267.093Z" fill="#EDEFFE"/>
</g>
</g>
</svg>
