<svg width="103" height="48" viewBox="0 0 103 48" fill="none" xmlns="http://www.w3.org/2000/svg">
<g clip-path="url(#clip0_14_343)">
<path d="M32.0108 17.3635V18.6494L31.933 20.4186L31.3711 21.8684L30.887 23.0766L30.3251 24.4401L29.841 25.9676L29.2791 27.1758L28.553 28.2977L27.9911 29.178L27.265 30.1446L26.7031 31.0248L25.9769 32.069L25.3372 32.794L24.2134 33.8382L23.3317 34.3991L21.9658 35.1241L20.6778 35.7627L19.4676 36.246L18.0153 36.6516L16.6494 37.0572L15.0415 37.2988L13.2694 37.5405L11.6615 37.7044L1.77214 37.6268H0.0778011L0 37.0658V36.4272L0.968191 35.7886L1.53009 35.4693L2.41183 34.8306L3.29358 34.3474L4.58162 33.9417L5.79186 33.3808L7.0799 32.8975L9.09408 32.0173L10.8662 31.2147L12.794 30.3344L14.6439 29.3679L16.5716 28.3236L18.4216 27.3571L20.7556 26.2352L22.2079 25.4326L23.738 24.466L25.5101 23.4218L27.118 22.2136L28.6481 21.0917L29.452 20.4531L30.3338 19.4865L30.9735 18.8479L31.4576 18.2093L32.0195 17.4067L32.0108 17.3635ZM37.5261 6.50701L32.5381 11.3225L26.5042 4.9795L31.4922 0L37.5261 6.50701Z" fill="#15115F"/>
<path d="M45.9457 12.7551L46.7497 12.2718L47.9599 12.1078L49.248 12.2718L49.9741 12.9104L50.6138 13.6354L51.4178 14.6019L52.2217 15.9655H55.2387V24.6386H53.1034L52.6972 27.288L52.1353 29.2125L51.5734 30.74L50.9337 32.5091L50.1297 34.1143L49.248 35.9611L48.6083 37.1693L47.8821 38.2912L47.0004 39.5771L46.1186 40.7853L45.1504 41.9935L43.8624 43.2794L42.7386 44.1596L41.8569 44.7983L40.7331 45.3592L39.2894 45.9978L37.9236 46.4034L35.6674 46.8867L31.9675 47.37L28.3454 47.6893H21.7496L20.1417 47.5253L18.7759 47.042L19.7441 46.1618L20.7901 45.4369L21.9139 44.7983L23.686 43.918L25.7002 42.8738L28.7604 41.5879L33.5062 39.4218L37.768 37.4973L41.7099 35.4865L45.1677 33.398L46.6978 32.1898L47.8216 31.2233L48.6256 30.4207L48.9454 29.8597V28.3322L47.8216 26.4854L46.9399 26.8047L45.332 27.124H44.2082L42.5225 26.6408L41.7186 25.9158L41.3123 25.1132V21.9806L41.5543 20.6947L42.5225 18.5286L44.2082 15.2405L45.2542 13.6354L45.9803 12.7551H45.9457Z" fill="#15115F"/>
<path d="M54.7201 24.5523V15.9569L59.1461 14.9126L59.95 13.8684L60.9182 10.4941L61.4801 8.64727L62.1198 7.60304L62.9238 6.87812L64.8515 6.39484L66.2173 6.1532H68.2315L69.8394 6.55881L70.8854 7.28373V9.61382L70.4791 11.219L69.9172 12.5825L69.1133 14.1877L67.903 15.9569L66.3729 17.6397L65.327 18.4423L63.8747 19.5642L62.1025 20.6861L58.8089 22.4552L56.0773 23.9828L54.7114 24.5437L54.7201 24.5523Z" fill="#15115F"/>
<path d="M103 3.02051V4.30638L102.922 6.07552L102.36 7.52536L101.876 8.73356L101.314 10.0971L100.83 11.6246L100.268 12.8328L99.5422 13.9547L98.9803 14.835L98.2541 15.8015L97.6922 16.6818L96.9661 17.726L96.3264 18.4509L95.2026 19.4952L94.3208 20.0561L92.955 20.781L91.667 21.4196L90.4567 21.9029L89.0044 22.3085L87.6386 22.7141L86.0307 22.9558L84.2586 23.1974L82.6507 23.3614L72.7613 23.2837H71.0756L70.9978 22.7228V22.0842L71.966 21.4455L72.5279 21.1262L73.4096 20.4876L74.2914 20.0043L75.5794 19.5987L76.7897 19.0378L78.0777 18.5545L80.0919 17.6742L81.864 16.8716L83.7918 15.9914L85.6417 15.0248L87.5694 13.9806L89.4194 13.014L91.7534 11.8921L93.2057 11.0895L94.7358 10.123L96.5079 9.07876L98.1158 7.87056L99.6459 6.74866L100.45 6.11004L101.332 5.14349L101.971 4.50487L102.455 3.86625L103.017 3.06366L103 3.02051Z" fill="#15115F"/>
<path d="M75.9858 30.0496C75.9339 30.0496 75.8215 30.1014 75.6832 30.205C75.4931 30.5243 74.862 31.8792 72.9515 36.4013C71.8364 38.5156 71.2313 40.069 71.1448 41.0356V41.1392C71.1362 41.2427 71.1448 41.6311 71.3091 41.6483L71.5079 41.6656C71.5079 41.6656 71.6981 41.6483 72.2254 40.9666C72.8392 40.069 74.2742 36.6861 76.4958 30.9385L76.5131 30.6969C76.5304 30.4984 76.4958 30.2222 75.9858 30.0496Z" fill="#FEB109"/>
<path d="M65.2577 32.2503C65.2145 32.0863 65.1281 31.8706 64.9811 31.8706L64.0648 31.8964H63.3127L63.6585 31.4995C64.2722 30.9903 64.3068 30.8522 64.3068 30.8436V30.7055C64.3068 30.6451 64.3068 30.4984 63.9956 30.4639C63.9351 30.4639 63.6931 30.5415 63.062 31.2406L63.0274 31.2751H62.8805L62.8459 31.1802C62.8286 30.9989 62.8113 30.9126 62.8027 30.8695H62.7767V30.7745C62.6903 30.205 62.5433 29.8943 62.3532 29.8943C62.0679 29.8943 61.9987 30.0324 61.9728 30.1618H61.9814L62.163 31.1888V31.4218L61.9901 31.2751C61.2467 30.6624 60.9873 30.5674 60.8922 30.5674H60.8144C60.7193 30.5674 60.5983 30.6019 60.5119 30.8867V30.9213C60.5119 31.0507 60.6675 31.2147 60.9441 31.37L61.3245 31.6548V31.8015L61.238 31.8447C59.8289 32.0604 59.6733 32.3279 59.6733 32.4401V32.5437C59.6733 32.6386 59.7079 32.7681 59.9932 32.8371C60.5897 32.6386 61.0997 32.5437 61.5751 32.5437H62.0247L61.9036 32.7163C61.7307 32.9666 61.4023 33.2945 60.9095 33.7087L60.8836 33.726C60.4081 33.959 60.3822 34.0712 60.3822 34.0885V34.1661C60.3822 34.2352 60.3995 34.3042 60.5637 34.3301H60.5983C60.7971 34.3301 61.2207 34.1575 62.1198 33.329L62.2926 33.1737V33.4067C62.3272 34.0539 62.3618 34.2179 62.3791 34.2611V34.3042C62.3877 34.7875 62.4828 35.0291 62.6817 35.0291H62.82C62.8718 35.0291 63.0188 35.0291 63.1139 34.6753L63.0879 34.4941L63.062 33.5189L63.2435 33.6829C63.6239 34.0194 63.9524 34.192 64.229 34.192H64.3068C64.5229 34.1661 64.5489 34.0712 64.5489 33.9763C64.5489 33.8468 64.497 33.726 64.3846 33.5879L63.2781 32.6559H64.3587C65.2577 32.6559 65.2577 32.3452 65.2577 32.2503Z" fill="#FEB109"/>
<path d="M66.0532 37.3161C64.428 37.014 63.9698 37.6526 63.7624 38.2395C63.3215 39.439 63.7364 39.9568 64.0822 40.233C64.6441 40.6818 65.085 40.8457 65.3875 40.7077L66.1915 40.3452L65.984 41.1996C65.7766 42.0453 65.4308 42.8306 64.938 43.5901C64.4799 44.2459 64.5404 44.4617 64.5404 44.4617C64.6268 44.5739 64.7651 44.7033 65.1714 44.6861C65.2579 44.6861 65.6988 44.5911 66.6064 43.2276C67.2548 42.2438 67.6438 40.9924 67.7562 39.5253C67.834 38.2567 67.298 37.5577 66.0532 37.3161Z" fill="#FEB109"/>
<path d="M60.5984 36.3926C60.5465 36.3926 60.4341 36.4444 60.2958 36.548C60.1056 36.8587 59.4746 38.2136 57.5641 42.7443C56.449 44.8587 55.8439 46.4121 55.7574 47.37V47.4822C55.7488 47.5771 55.7661 47.9741 55.9217 47.9827L56.1205 48C56.1205 48 56.3107 47.9827 56.838 47.3009C57.4518 46.4034 58.8868 43.0205 61.1084 37.2729L61.1257 37.0313C61.143 36.8328 61.1171 36.5566 60.5984 36.3926Z" fill="#FEB109"/>
<path d="M68.5428 31.7066C67.0645 31.9137 66.8657 32.5955 66.8657 33.1651C67.2201 35.6591 68.2489 35.9526 68.9923 35.9526H69.5023C71.5597 35.4865 71.5597 34.7444 71.5597 34.4941V34.0453C70.7039 32.4747 69.7098 31.7066 68.5428 31.7066Z" fill="#FEB109"/>
</g>
<defs>
<clipPath id="clip0_14_343">
<rect width="103" height="48" fill="white"/>
</clipPath>
</defs>
</svg>
