<svg width="44" height="39" viewBox="0 0 44 39" fill="none" xmlns="http://www.w3.org/2000/svg">
<path d="M42.49 1.02002C42.38 1.02002 42.15 1.13002 41.87 1.34002C41.48 2.00002 40.17 4.80002 36.23 14.16C33.93 18.53 32.68 21.75 32.5 23.75L32.48 23.96C32.48 24.17 32.52 24.98 32.84 25.01L33.25 25.05C33.25 25.05 33.64 25.01 34.73 23.6C36 21.74 38.96 14.75 43.55 2.86002L43.59 2.36002C43.63 1.95002 43.55 1.38002 42.5 1.02002H42.49Z" fill="#7E71FE"/>
<path d="M20.32 5.56993C20.23 5.22993 20.05 4.77993 19.75 4.77993L17.86 4.82993H16.31L17.02 4.00993C18.29 2.95993 18.36 2.66993 18.36 2.64993V2.35993C18.36 2.23993 18.36 1.92993 17.72 1.85993C17.6 1.85993 17.1 2.01993 15.79 3.46993L15.72 3.53993H15.42L15.35 3.33993C15.31 2.96993 15.28 2.78993 15.26 2.69993H15.21L15.19 2.49993C15.03 1.31993 14.73 0.679932 14.33 0.679932C13.74 0.679932 13.6 0.969931 13.54 1.22993H13.56L13.93 3.34993V3.82993L13.57 3.52993C12.03 2.25993 11.5 2.06993 11.3 2.06993H11.14C10.94 2.06993 10.69 2.13993 10.52 2.72993V2.79993C10.52 3.06993 10.84 3.40993 11.41 3.72993L12.2 4.31993V4.61993L12.02 4.70993C9.11004 5.15993 8.79004 5.70993 8.79004 5.93993V6.14993C8.79004 6.34993 8.86004 6.60993 9.45004 6.75993C10.68 6.34993 11.74 6.14993 12.72 6.14993H13.65L13.4 6.50993C13.04 7.02993 12.36 7.70993 11.35 8.55993L11.3 8.59993C10.32 9.07993 10.26 9.30993 10.26 9.34993V9.50993C10.26 9.64993 10.3 9.79993 10.63 9.84993H10.7C11.11 9.84993 11.99 9.48993 13.84 7.77993L14.2 7.45993L14.22 7.93993C14.27 9.27993 14.35 9.61993 14.38 9.70993L14.4 9.79993C14.4 10.7999 14.6 11.2999 15.01 11.2999H15.3C15.41 11.2999 15.71 11.2999 15.91 10.5699L15.86 10.1999L15.81 8.17993L16.18 8.51993C16.97 9.21993 17.64 9.56993 18.21 9.56993H18.37C18.82 9.51993 18.87 9.31993 18.87 9.11993C18.87 8.84993 18.76 8.59993 18.53 8.31993L16.24 6.38993H18.47C20.33 6.38993 20.33 5.74993 20.33 5.54993L20.32 5.56993Z" fill="#7E71FE"/>
<path d="M21.9599 16.0499C18.5999 15.4299 17.6599 16.7499 17.2299 17.9599C16.3199 20.4399 17.1799 21.5099 17.8899 22.0799C19.0499 23.0099 19.9599 23.3499 20.5899 23.0599L22.2499 22.3099L21.8199 24.0799C21.3899 25.8299 20.6799 27.4499 19.6599 29.0299C18.7099 30.3899 18.8399 30.8299 18.8399 30.8299C19.0199 31.0599 19.2999 31.3299 20.1399 31.2899C20.3199 31.2899 21.2299 31.0899 23.0999 28.2699C24.4399 26.2299 25.2399 23.6499 25.4699 20.6099C25.6299 17.9899 24.5199 16.5399 21.9499 16.0399L21.9599 16.0499Z" fill="#7E71FE"/>
<path d="M10.6899 14.1399C10.5799 14.1399 10.3499 14.2499 10.0599 14.4599C9.66992 15.0999 8.35992 17.9099 4.41992 27.2799C2.11992 31.6499 0.869922 34.8699 0.689922 36.8499L0.669922 37.0799C0.669922 37.2799 0.709922 38.0999 1.02992 38.1199L1.43992 38.1599C1.43992 38.1599 1.82992 38.1199 2.91992 36.7099C4.18992 34.8499 7.14992 27.8599 11.7399 15.9699L11.7799 15.4699C11.8199 15.0599 11.7599 14.4899 10.6899 14.1499V14.1399Z" fill="#7E71FE"/>
<path d="M27.1099 4.44995C24.0599 4.87995 23.6499 6.28995 23.6499 7.46995C24.3799 12.6299 26.5099 13.24 28.0399 13.24H29.0899C33.3399 12.28 33.3399 10.74 33.3399 10.22V9.28995C31.5699 6.03995 29.5199 4.44995 27.1099 4.44995Z" fill="#7E71FE"/>
</svg>
