<svg width="24" height="25" viewBox="0 0 24 25" fill="none" xmlns="http://www.w3.org/2000/svg">
    <!-- <path d="M23.9983 12.5199C23.9983 18.5807 19.5059 23.5912 13.6698 24.4043C13.1242 24.48 12.5659 24.5195 11.9992 24.5195C11.345 24.5195 10.7026 24.4674 10.0771 24.3665C4.36379 23.4466 0 18.4924 0 12.5199C0 5.89248 5.37276 0.519531 12 0.519531C18.6272 0.519531 24 5.89248 24 12.5199H23.9983Z" fill="currentColor"></path> -->
    <path d="M4.86455 5.8125L10.3987 13.2119L4.83008 19.228H6.08372L10.9596 13.961L14.8987 19.228H19.1642L13.3189 11.4125L18.5024 5.8125H17.2488L12.7589 10.6633L9.13081 5.8125H4.86539H4.86455ZM6.7076 6.73574H8.66668L17.3194 18.3048H15.3603L6.7076 6.73574Z" fill="white"></path>
</svg>