<svg xmlns="http://www.w3.org/2000/svg" version="1.1" xmlns:xlink="http://www.w3.org/1999/xlink" xmlns:svgjs="http://svgjs.dev/svgjs" width="500" height="500"><svg width="500" height="500" viewBox="0 0 500 500" fill="none" xmlns="http://www.w3.org/2000/svg">
<path d="M487.157 35.7406C485.908 35.7406 483.202 36.9875 479.871 39.4813C475.291 47.1705 460.095 79.7978 414.09 188.694C387.236 239.609 372.664 277.016 370.583 300.292V302.785C370.375 305.279 370.583 314.631 374.538 315.047L379.326 315.462C379.326 315.462 383.906 315.047 396.604 298.629C411.384 277.016 445.939 195.552 499.439 57.1457L499.855 51.3269C500.271 46.5471 499.439 39.8969 487.157 35.7406Z" fill="#15115F"></path>
<path d="M228.82 88.734C227.779 84.7855 225.697 79.5901 222.159 79.5901L200.093 80.2135H181.982L190.309 70.654C205.089 58.3928 205.921 55.0677 205.921 54.8599V51.5348C205.921 50.0801 205.921 46.5472 198.427 45.7159C196.97 45.7159 191.141 47.5863 175.945 64.4195L175.113 65.2508H171.574L170.741 62.9648C170.325 58.6006 169.908 56.5224 169.7 55.4833H169.076V53.1973C166.994 39.4814 163.455 32 158.875 32C152.006 32 150.341 35.3251 149.716 38.4424H149.924L154.296 63.1725V68.7836L150.132 65.2508C132.23 50.4958 125.985 48.2097 123.695 48.2097H121.822C119.532 48.2097 116.617 49.041 114.536 55.899V56.7303C114.536 59.8475 118.283 63.796 124.944 67.5367L134.104 74.3947V77.9275L132.022 78.9667C98.0904 84.1621 94.3434 90.6044 94.3434 93.306V95.7998C94.3434 98.0858 95.1761 101.203 102.046 102.866C116.409 98.0858 128.691 95.7998 140.14 95.7998H150.965L148.051 99.9562C143.887 105.983 135.977 113.88 124.111 123.855L123.487 124.271C112.038 129.882 111.413 132.583 111.413 132.999V134.869C111.413 136.532 111.829 138.194 115.785 138.818H116.617C121.405 138.818 131.605 134.662 153.255 114.711L157.418 110.97V116.581C158.251 132.168 159.084 136.116 159.5 137.155V138.194C159.708 149.832 161.998 155.651 166.786 155.651H170.117C171.366 155.651 174.904 155.651 177.194 147.131L176.57 142.766L175.945 119.283L180.317 123.232C189.476 131.336 197.387 135.493 204.048 135.493H205.921C211.126 134.869 211.75 132.583 211.75 130.297C211.75 127.18 210.501 124.271 207.795 120.946L181.149 98.5014H207.17C228.82 98.5014 228.82 91.02 228.82 88.734Z" fill="#15115F"></path>
<path d="M247.972 210.722C208.836 203.449 197.803 218.827 192.807 232.959C182.191 261.845 192.183 274.314 200.509 280.964C214.04 291.771 224.657 295.719 231.943 292.394L251.302 283.666L246.306 304.24C241.31 324.606 232.984 343.517 221.118 361.805C210.085 377.599 211.542 382.795 211.542 382.795C213.624 385.496 216.955 388.614 226.739 388.198C228.82 388.198 239.437 385.912 261.294 353.077C276.907 329.386 286.275 299.252 288.981 263.923C290.854 233.374 277.948 216.541 247.972 210.722Z" fill="#15115F"></path>
<path d="M116.618 188.486C115.369 188.486 112.662 189.733 109.332 192.227C104.752 199.708 89.5557 232.336 43.5506 341.439C16.6969 392.355 2.12526 429.762 0.0435753 452.829V455.531C-0.164593 457.817 0.251794 467.377 3.99882 467.584L8.78659 468C8.78659 468 13.3663 467.584 26.0646 451.167C40.8445 429.554 75.4004 348.09 128.9 209.684L129.316 203.865C129.732 199.085 129.108 192.435 116.618 188.486Z" fill="#15115F"></path>
<path d="M307.924 75.6413C272.327 80.6289 267.539 97.0464 267.539 110.762C276.074 170.821 300.846 177.887 318.749 177.887H331.031C380.575 166.665 380.575 148.793 380.575 142.766V131.96C359.966 94.137 336.027 75.6413 307.924 75.6413Z" fill="#15115F"></path>
</svg><style>@media (prefers-color-scheme: light) { :root { filter: none; } }
@media (prefers-color-scheme: dark) { :root { filter: contrast(0.3846153846153846) brightness(4.5); } }
</style></svg>